<svg width="123" height="64" viewBox="0 0 123 64" fill="none" xmlns="http://www.w3.org/2000/svg">
<g clip-path="url(#clip0_169_214)">
<path d="M117.678 30.3926L117.613 30.4577C118.068 29.2219 118.979 28.7665 119.759 28.7665C120.865 28.7665 121.841 29.6121 121.841 30.848C121.841 31.1082 121.841 31.4334 121.711 31.8236C119.434 37.6777 114.621 40.6697 109.938 41.125C107.791 44.7675 104.279 47.4343 99.2704 47.4343C92.1156 47.4343 88.9285 41.7755 88.9285 35.5963C88.9285 27.986 93.7418 19.5302 101.807 19.5302C103.563 19.5302 105.059 19.9206 106.295 20.4409C109.938 21.8068 112.279 26.5551 112.279 31.6285C112.279 33.2546 112.149 34.8807 111.759 36.4419C114.166 35.5963 116.442 33.6448 117.678 30.3926ZM104.084 24.8639V24.7989C102.653 24.7989 101.807 26.6851 101.807 28.9617C101.807 32.279 103.628 35.336 106.49 36.4419C106.946 35.0109 107.141 33.3848 107.141 31.4985C107.141 27.856 106.035 24.8639 104.084 24.8639ZM99.3355 42.686C101.157 42.686 102.978 41.9055 104.409 40.2794C100.181 38.3931 97.5143 33.9702 97.5143 29.7422C97.5143 28.3112 97.7745 26.8153 98.1648 25.5143C95.5631 27.6609 94.067 31.8887 94.067 35.5963C94.067 40.4095 96.3436 42.686 99.3355 42.686Z" fill="#3F97CF"/>
<path d="M89.9327 30.3926L89.8677 30.4577C90.323 29.2219 91.1035 28.7016 91.884 28.7016C92.9898 28.7016 94.0955 29.6772 94.0955 30.9131C94.0955 31.2382 94.0305 31.4985 93.9003 31.8236C91.3637 38.0029 87.5911 45.2228 81.542 49.4507L81.412 50.7516C80.6964 58.557 76.7288 63.5002 71.7203 63.5002C67.9477 63.5002 65.7362 60.8985 65.7362 57.8414C65.7362 52.3126 71.395 50.2963 76.6637 46.9141C76.7937 45.548 76.8589 43.987 76.9238 42.2307C74.3221 45.0926 71.5252 46.2636 69.0535 46.2636C64.1101 46.2636 60.0774 42.2307 60.0774 36.0516C60.0774 26.5551 66.3216 20.3109 73.2813 20.3109H73.3464C78.0947 20.3109 83.1681 22.8475 83.1681 27.4007C83.1681 28.8967 82.5176 37.0273 81.9974 43.3365C85.5096 40.0192 88.4367 34.6206 89.9327 30.3926ZM69.7689 41.5804C72.1757 41.5804 75.4279 40.0843 77.4442 32.7343C77.7694 31.1082 77.9645 29.6772 77.8996 27.986C77.5093 26.2299 76.0132 25.1892 73.8667 25.1892C69.4437 25.1892 65.2159 29.417 65.2159 35.8565C65.2159 39.7592 67.0371 41.5804 69.7689 41.5804ZM72.2406 58.7521H72.3057C73.6716 58.7521 75.1676 57.8414 76.1433 51.9875C73.2813 53.6785 70.6145 55.3697 70.6145 57.3861C70.6145 58.2317 71.265 58.7521 72.2406 58.7521Z" fill="#3F97CF"/>
<path d="M61.2188 30.3926L61.1538 30.4577C61.609 29.2219 62.5197 28.7665 63.3002 28.7665C64.406 28.7665 65.3817 29.6121 65.3817 30.848C65.3817 31.1082 65.3817 31.4334 65.2516 31.8236C62.9751 37.6777 58.1617 40.6697 53.4785 41.125C51.3321 44.7675 47.8197 47.4343 42.8112 47.4343C35.6563 47.4343 32.4692 41.7755 32.4692 35.5963C32.4692 27.986 37.2824 19.5302 45.348 19.5302C47.1041 19.5302 48.6002 19.9206 49.8361 20.4409C53.4785 21.8068 55.8202 26.5551 55.8202 31.6285C55.8202 33.2546 55.69 34.8807 55.2997 36.4419C57.7065 35.5963 59.9829 33.6448 61.2188 30.3926ZM47.6246 24.8639V24.7989C46.1936 24.7989 45.348 26.6851 45.348 28.9617C45.348 32.279 47.1692 35.336 50.0312 36.4419C50.4865 35.0109 50.6817 33.3848 50.6817 31.4985C50.6817 27.856 49.5758 24.8639 47.6246 24.8639ZM42.8763 42.686C44.6975 42.686 46.5188 41.9055 47.9497 40.2794C43.7219 38.3931 41.0551 33.9702 41.0551 29.7422C41.0551 28.3112 41.3153 26.8153 41.7056 25.5143C39.1038 27.6609 37.6078 31.8887 37.6078 35.5963C37.6078 40.4095 39.8843 42.686 42.8763 42.686Z" fill="#3F97CF"/>
<path d="M35.7751 28.3395C34.8644 28.3395 34.0839 28.7949 33.5634 30.0307C31.8724 34.3237 28.3598 41.6087 24.7823 41.6087C22.5297 41.6087 20.7865 41.0993 19.025 40.5845C17.2261 40.0588 15.4082 39.5273 13.0091 39.5273C12.1635 39.5273 10.9927 39.6575 9.88692 39.8526C13.2182 35.31 14.4627 29.8085 15.6686 19.4095C13.398 19.2649 11.5511 18.8454 10.2048 18.4218C8.76692 31.6106 7.13407 36.6394 1.17081 41.6087C0.390267 42.2592 0 43.1699 0 44.0806C0 45.5116 1.23587 46.7474 2.79697 46.7474C3.31734 46.7474 3.90273 46.5523 4.48814 46.2921C7.80547 44.796 9.82188 44.4058 12.2936 44.4058C13.8654 44.4058 15.7462 44.8553 17.7599 45.3364C20.0793 45.8908 22.575 46.4872 24.9776 46.4872C30.2461 46.4872 33.6936 41.3487 37.5312 31.3966C37.7265 31.0715 37.7914 30.6812 37.7914 30.3559C37.7914 29.12 36.8158 28.3395 35.7751 28.3395Z" fill="#3F97CF"/>
<path fill-rule="evenodd" clip-rule="evenodd" d="M10.5348 15.73C11.7127 16.1412 13.5516 16.6199 15.9359 16.7616L16.3261 16.7614C23.6763 16.7614 28.4897 12.2082 28.4897 6.74437C28.4897 3.23191 25.7578 0.5 21.92 0.5C16.7815 0.5 13.204 4.01246 11.3827 10.9723C9.1061 9.73646 7.54501 7.52492 6.76446 4.72797C6.37417 3.362 5.52859 2.5164 4.35775 2.5164C2.92676 2.5164 2.01611 3.62219 2.01611 5.11823C2.01611 9.54134 5.46354 13.7693 10.5371 15.7207L10.5348 15.73ZM16.7164 12.0131C17.692 7.52492 19.2532 5.37842 21.3347 5.37842C22.4405 5.37842 23.1559 6.02888 23.1559 7.1997C23.1559 9.3462 20.8793 11.883 16.7164 12.0131Z" fill="#3F97CF"/>
</g>
<defs>
<clipPath id="clip0_169_214">
<rect width="122.5" height="63" fill="white" transform="translate(0 0.5)"/>
</clipPath>
</defs>
</svg>
