<svg width="36" height="36" viewBox="0 0 36 36" fill="none" xmlns="http://www.w3.org/2000/svg">
<g clip-path="url(#clip0_140_277)">
<path d="M35.4833 18.1988C35.4833 16.735 35.3642 15.6668 35.1065 14.5591H18.3486V21.166H28.1851C27.9869 22.8079 26.916 25.2806 24.5361 26.9421L24.5028 27.1633L29.8013 31.2576L30.1684 31.2941C33.5397 28.1884 35.4833 23.6189 35.4833 18.1988Z" fill="#4285F4"/>
<path d="M18.3486 35.6065C23.1677 35.6065 27.2133 34.0239 30.1684 31.2941L24.5361 26.9421C23.0289 27.9906 21.006 28.7225 18.3486 28.7225C13.6287 28.7225 9.62269 25.6169 8.19467 21.3243L7.98535 21.3421L2.47586 25.5951L2.40381 25.7948C5.33889 31.6105 11.3678 35.6065 18.3486 35.6065Z" fill="#34A853"/>
<path d="M8.19467 21.3243C7.81787 20.2165 7.5998 19.0296 7.5998 17.8032C7.5998 16.5767 7.81787 15.3898 8.17484 14.2821L8.16486 14.0462L2.58633 9.72485L2.40381 9.81145C1.19412 12.2248 0.5 14.9349 0.5 17.8032C0.5 20.6715 1.19412 23.3814 2.40381 25.7948L8.19467 21.3243Z" fill="#FBBC05"/>
<path d="M18.3486 6.88386C21.7002 6.88386 23.9609 8.3279 25.2501 9.53464L30.2873 4.62884C27.1937 1.76055 23.1677 0 18.3486 0C11.3678 0 5.33889 3.9958 2.40381 9.81147L8.17484 14.2821C9.6227 9.98958 13.6287 6.88386 18.3486 6.88386Z" fill="#EB4335"/>
</g>
<defs>
<clipPath id="clip0_140_277">
<rect width="35" height="35.7292" fill="white" transform="translate(0.5)"/>
</clipPath>
</defs>
</svg>
