<svg width="152" height="56" viewBox="0 0 152 56" fill="none" xmlns="http://www.w3.org/2000/svg">
<mask id="path-1-outside-1_445_1029" maskUnits="userSpaceOnUse" x="0" y="10" width="17" height="39" fill="black">
<rect fill="white" y="10" width="17" height="39"/>
<path d="M11.68 11C11.9733 11.0533 12.3867 11.2667 12.92 11.64C13.4533 12.0133 13.9733 12.4133 14.48 12.84C14.9867 13.2667 15.36 13.6133 15.6 13.88L14.84 36.48C14.4933 37.76 13.9067 38.96 13.08 40.08C12.28 41.2 11.3333 42.2133 10.24 43.12C9.14667 44.0533 8 44.8533 6.8 45.52C5.62667 46.2133 4.48 46.7733 3.36 47.2C2.93333 46.8533 2.50667 46.3067 2.08 45.56C1.65333 44.84 1.34667 44.0533 1.16 43.2L1.92 41.44L9.4 39.4L10.72 25.56L10.56 15.56L6.52 16.08C5.85333 15.6533 5.28 15.2133 4.8 14.76C4.32 14.3067 3.81333 13.7333 3.28 13.04L4.04 11H11.68Z"/>
</mask>
<path d="M11.68 11C11.9733 11.0533 12.3867 11.2667 12.92 11.64C13.4533 12.0133 13.9733 12.4133 14.48 12.84C14.9867 13.2667 15.36 13.6133 15.6 13.88L14.84 36.48C14.4933 37.76 13.9067 38.96 13.08 40.08C12.28 41.2 11.3333 42.2133 10.24 43.12C9.14667 44.0533 8 44.8533 6.8 45.52C5.62667 46.2133 4.48 46.7733 3.36 47.2C2.93333 46.8533 2.50667 46.3067 2.08 45.56C1.65333 44.84 1.34667 44.0533 1.16 43.2L1.92 41.44L9.4 39.4L10.72 25.56L10.56 15.56L6.52 16.08C5.85333 15.6533 5.28 15.2133 4.8 14.76C4.32 14.3067 3.81333 13.7333 3.28 13.04L4.04 11H11.68Z" fill="#3E82CD"/>
<path d="M11.68 11L11.8589 10.0161L11.7702 10H11.68V11ZM12.92 11.64L12.3465 12.4592L12.92 11.64ZM14.48 12.84L15.1241 12.0751L15.1241 12.0751L14.48 12.84ZM15.6 13.88L16.5994 13.9136L16.613 13.5107L16.3433 13.211L15.6 13.88ZM14.84 36.48L15.8052 36.7414L15.8355 36.6295L15.8394 36.5136L14.84 36.48ZM13.08 40.08L12.2754 39.4861L12.2708 39.4924L12.2663 39.4988L13.08 40.08ZM10.24 43.12L9.60166 42.3502L9.59617 42.3548L9.59074 42.3594L10.24 43.12ZM6.8 45.52L6.31436 44.6458L6.30273 44.6523L6.29127 44.6591L6.8 45.52ZM3.36 47.2L2.72941 47.9761L3.17703 48.3398L3.716 48.1345L3.36 47.2ZM2.08 45.56L2.94824 45.0639L2.94432 45.057L2.94029 45.0502L2.08 45.56ZM1.16 43.2L0.241938 42.8036L0.114294 43.0992L0.1831 43.4137L1.16 43.2ZM1.92 41.44L1.65688 40.4752L1.19268 40.6018L1.00194 41.0436L1.92 41.44ZM9.4 39.4L9.66312 40.3648L10.3299 40.1829L10.3955 39.4949L9.4 39.4ZM10.72 25.56L11.7155 25.6549L11.7208 25.5996L11.7199 25.544L10.72 25.56ZM10.56 15.56L11.5599 15.544L11.542 14.4254L10.4323 14.5682L10.56 15.56ZM6.52 16.08L5.98095 16.9223L6.28712 17.1182L6.64766 17.0718L6.52 16.08ZM4.8 14.76L4.11338 15.487L4.11338 15.487L4.8 14.76ZM3.28 13.04L2.34292 12.6909L2.1494 13.2103L2.48738 13.6497L3.28 13.04ZM4.04 11V10H3.34541L3.10292 10.6509L4.04 11ZM11.5011 11.9839C11.5007 11.9838 11.5062 11.9848 11.5183 11.9883C11.5303 11.9917 11.5472 11.9972 11.5694 12.0056C11.6146 12.0226 11.6748 12.0491 11.7514 12.0886C11.9061 12.1685 12.1033 12.2889 12.3465 12.4592L13.4935 10.8208C12.9495 10.44 12.3828 10.1114 11.8589 10.0161L11.5011 11.9839ZM12.3465 12.4592C12.8551 12.8152 13.3515 13.1971 13.8359 13.6049L15.1241 12.0751C14.5951 11.6296 14.0516 11.2114 13.4935 10.8208L12.3465 12.4592ZM13.8359 13.6049C14.3314 14.0222 14.6632 14.3339 14.8567 14.549L16.3433 13.211C16.0568 12.8928 15.6419 12.5111 15.1241 12.0751L13.8359 13.6049ZM14.6006 13.8464L13.8406 36.4464L15.8394 36.5136L16.5994 13.9136L14.6006 13.8464ZM13.8748 36.2186C13.5622 37.3729 13.0321 38.461 12.2754 39.4861L13.8846 40.6739C14.7812 39.459 15.4245 38.1471 15.8052 36.7414L13.8748 36.2186ZM12.2663 39.4988C11.5179 40.5464 10.6308 41.4968 9.60166 42.3502L10.8783 43.8898C12.0359 42.9298 13.0421 41.8536 13.8937 40.6612L12.2663 39.4988ZM9.59074 42.3594C8.54565 43.2516 7.4535 44.013 6.31436 44.6458L7.28564 46.3942C8.5465 45.6937 9.74768 44.8551 10.8893 43.8806L9.59074 42.3594ZM6.29127 44.6591C5.16018 45.3274 4.0645 45.8615 3.004 46.2655L3.716 48.1345C4.8955 47.6852 6.09315 47.0992 7.30873 46.3809L6.29127 44.6591ZM3.99059 46.4239C3.69823 46.1863 3.34434 45.757 2.94824 45.0639L1.21176 46.0561C1.669 46.8563 2.16844 47.5203 2.72941 47.9761L3.99059 46.4239ZM2.94029 45.0502C2.5704 44.426 2.30176 43.7399 2.1369 42.9863L0.1831 43.4137C0.391575 44.3667 0.736267 45.254 1.21971 46.0698L2.94029 45.0502ZM2.07806 43.5964L2.83806 41.8364L1.00194 41.0436L0.241938 42.8036L2.07806 43.5964ZM2.18312 42.4048L9.66312 40.3648L9.13688 38.4352L1.65688 40.4752L2.18312 42.4048ZM10.3955 39.4949L11.7155 25.6549L9.72452 25.4651L8.40452 39.3051L10.3955 39.4949ZM11.7199 25.544L11.5599 15.544L9.56013 15.576L9.72013 25.576L11.7199 25.544ZM10.4323 14.5682L6.39234 15.0882L6.64766 17.0718L10.6877 16.5518L10.4323 14.5682ZM7.05905 15.2377C6.43505 14.8384 5.91324 14.4359 5.48662 14.033L4.11338 15.487C4.64676 15.9908 5.27162 16.4683 5.98095 16.9223L7.05905 15.2377ZM5.48662 14.033C5.05502 13.6254 4.58344 13.0944 4.07262 12.4303L2.48738 13.6497C3.04322 14.3723 3.58498 14.988 4.11338 15.487L5.48662 14.033ZM4.21708 13.3891L4.97708 11.3491L3.10292 10.6509L2.34292 12.6909L4.21708 13.3891ZM4.04 12H11.68V10H4.04V12Z" fill="black" mask="url(#path-1-outside-1_445_1029)"/>
<mask id="path-3-outside-2_445_1029" maskUnits="userSpaceOnUse" x="22" y="5" width="130" height="36" fill="black">
<rect fill="white" x="22" y="5" width="130" height="36"/>
<path d="M27.76 28.84C26.3733 28.0933 25.12 27.1067 24 25.88C24.0267 25.4533 24.2 24.9733 24.52 24.44C24.8667 23.88 25.2667 23.3733 25.72 22.92C26.2 22.44 26.6533 22.1467 27.08 22.04C27.5067 22.04 27.9867 22.2133 28.52 22.56C29.0533 22.88 29.5467 23.28 30 23.76C30.4533 24.2133 30.72 24.6533 30.8 25.08C30.7733 25.5333 30.5867 26.04 30.24 26.6C29.8933 27.1333 29.4933 27.6133 29.04 28.04C28.5867 28.44 28.16 28.7067 27.76 28.84ZM64.0131 15.76L55.0131 14.88L54.6531 26.08L54.7731 39.08L52.5331 39.64C51.8398 39.2933 51.1331 38.8267 50.4131 38.24C49.6931 37.6267 49.1065 36.8933 48.6531 36.04L50.5331 25.56L50.2131 15.08L43.8931 16.04C43.2265 15.6133 42.6531 15.1733 42.1731 14.72C41.6931 14.2667 41.1865 13.6933 40.6531 13L41.4131 10.68L52.9331 11L61.5331 10.36C62.3865 10.9467 63.0665 11.4933 63.5731 12C64.0798 12.48 64.5065 12.9733 64.8531 13.48L64.0131 15.76ZM74.6672 18.36C75.2805 18.68 75.8672 19.28 76.4272 20.16C77.0139 21.0133 77.4272 21.9067 77.6672 22.84L77.3072 27.84C76.8539 28.16 76.2805 28.4 75.5872 28.56C74.8939 28.6933 74.2539 28.7733 73.6672 28.8L72.7072 27.88C72.8405 26.8933 72.9205 26.0267 72.9472 25.28C73.0005 24.5067 72.9739 23.8267 72.8672 23.24C72.0405 23.8533 71.2672 24.7467 70.5472 25.92C69.8539 27.0667 69.2139 28.3467 68.6272 29.76L68.7472 39C68.1605 39.16 67.4805 39.24 66.7072 39.24C65.9339 39.24 65.2405 39.16 64.6272 39C63.8005 38.12 63.1205 37.12 62.5872 36C62.7739 35.12 63.0405 34.1867 63.3872 33.2C63.7339 32.1867 64.1339 31.1867 64.5872 30.2V28.76L64.1072 23.24L60.6272 24.12C60.4405 23.8 60.2139 23.36 59.9472 22.8C59.6805 22.2133 59.5205 21.6133 59.4672 21L64.8672 18.36C65.1339 18.3867 65.5072 18.5333 65.9872 18.8C66.4939 19.0667 66.9872 19.36 67.4672 19.68C67.9739 19.9733 68.3472 20.2267 68.5872 20.44L68.4272 23.6C69.5205 22.08 70.6272 20.8267 71.7472 19.84C72.8672 18.8533 73.8405 18.36 74.6672 18.36ZM98.7197 33.84C98.9597 34.16 99.1997 34.6133 99.4397 35.2C99.6797 35.7867 99.8264 36.3867 99.8797 37L94.4797 39.64C93.8397 39.4533 93.1464 39.1467 92.3997 38.72C91.6797 38.2933 91.133 37.9067 90.7597 37.56L90.9197 34.64C89.5864 36.1067 88.2397 37.28 86.8797 38.16C85.5197 39.04 84.333 39.5333 83.3197 39.64C82.9197 39.4267 82.4264 39.0533 81.8397 38.52C81.2797 37.96 80.7464 37.3467 80.2397 36.68C79.7597 35.9867 79.4397 35.3333 79.2797 34.72L80.1197 23.68C80.5197 22.8267 81.093 21.9733 81.8397 21.12C82.5864 20.24 83.333 19.5333 84.0797 19C85.9997 18.6533 87.8664 18.4533 89.6797 18.4C91.493 18.32 93.493 18.6267 95.6797 19.32C95.973 19.64 96.2397 20.0267 96.4797 20.48C96.7197 20.9333 96.9197 21.3733 97.0797 21.8C97.2664 22.2 97.373 22.5067 97.3997 22.72C97.133 23.8933 96.773 25.04 96.3197 26.16C95.893 27.28 95.373 28.3467 94.7597 29.36L95.2397 34.72L98.7197 33.84ZM84.7997 34.76C85.7597 34.4133 86.813 33.6667 87.9597 32.52C89.133 31.3733 90.1997 30.0133 91.1597 28.44L91.3197 22.4C90.2264 22.3733 89.173 22.4267 88.1597 22.56C87.1464 22.6933 86.1864 22.8933 85.2797 23.16C84.7997 24.4933 84.453 25.8533 84.2397 27.24C84.053 28.6 83.9597 29.8667 83.9597 31.04C83.9864 32.1867 84.0797 33.1067 84.2397 33.8C84.3997 34.4933 84.5864 34.8133 84.7997 34.76ZM117.637 18.92C117.93 19.2133 118.223 19.6 118.517 20.08C118.81 20.5333 119.063 20.9733 119.277 21.4C119.517 21.8 119.65 22.1067 119.677 22.32C119.143 25.7333 118.263 28.68 117.037 31.16C115.81 33.64 114.423 35.6 112.877 37.04C111.357 38.4533 109.863 39.32 108.397 39.64C107.97 39.4 107.437 39.0133 106.797 38.48C106.183 37.9467 105.61 37.3467 105.077 36.68C104.543 35.9867 104.157 35.3333 103.917 34.72L102.557 23.52L99.6366 24.28C99.3966 23.96 99.1566 23.48 98.9166 22.84C98.6766 22.1733 98.5299 21.5333 98.4766 20.92L104.357 18.36C104.97 18.6 105.65 19.08 106.397 19.8C107.17 20.4933 107.77 21.2133 108.197 21.96C107.77 23.4267 107.543 24.9333 107.517 26.48C107.49 28.0267 107.597 29.44 107.837 30.72C108.077 32 108.343 33.0133 108.637 33.76C108.957 34.5067 109.237 34.84 109.477 34.76C110.25 34.4667 111.01 33.7867 111.757 32.72C112.53 31.6533 113.223 30.3867 113.837 28.92L112.317 19.76C112.903 19.4933 113.69 19.2667 114.677 19.08C115.663 18.8667 116.65 18.8133 117.637 18.92ZM136.597 32.72C136.783 32.96 136.983 33.4267 137.197 34.12C137.437 34.8133 137.543 35.4267 137.517 35.96C136.37 36.44 135.17 36.92 133.917 37.4C132.663 37.8533 131.49 38.28 130.397 38.68C129.33 39.08 128.45 39.4 127.757 39.64C126.93 39.4267 126.063 39.0933 125.157 38.64C124.25 38.1867 123.423 37.6533 122.677 37.04C121.93 36.4 121.397 35.76 121.077 35.12L121.637 22.88C122.01 22.2133 122.53 21.5467 123.197 20.88C123.89 20.1867 124.57 19.56 125.237 19C126.783 18.6533 128.29 18.44 129.757 18.36C131.25 18.28 132.677 18.3467 134.037 18.56C134.277 18.6933 134.597 18.9867 134.997 19.44C135.423 19.8667 135.837 20.3067 136.237 20.76C136.637 21.2133 136.903 21.5467 137.037 21.76L136.877 27.72C136.183 28.2267 135.25 28.76 134.077 29.32C132.903 29.88 131.61 30.4267 130.197 30.96C128.783 31.4667 127.37 31.92 125.957 32.32C125.983 32.8267 126.023 33.32 126.077 33.8C126.13 34.28 126.197 34.7467 126.277 35.2L136.597 32.72ZM132.597 22.68C131.637 22.5467 130.703 22.5067 129.797 22.56C128.89 22.6133 127.943 22.7733 126.957 23.04C126.69 23.8667 126.477 24.76 126.317 25.72C126.157 26.68 126.037 27.6533 125.957 28.64C127.103 28.2667 128.303 27.7867 129.557 27.2C130.837 26.5867 131.997 25.9467 133.037 25.28L132.597 22.68ZM149.467 33.84C149.68 34.16 149.907 34.6133 150.147 35.2C150.413 35.7867 150.573 36.3867 150.627 37L145.227 39.64C144.24 39.1867 143.373 38.64 142.627 38C141.88 37.36 141.32 36.6933 140.947 36L141.787 22.88L142.107 11.32L138.987 12.12C138.8 11.8 138.573 11.36 138.307 10.8C138.04 10.2133 137.88 9.61333 137.827 9L143.227 6.36C143.493 6.38666 143.907 6.52 144.467 6.76C145.053 7 145.627 7.28 146.187 7.6C146.747 7.92 147.147 8.2 147.387 8.44L145.667 23.24L145.987 34.76L149.467 33.84Z"/>
</mask>
<path d="M27.76 28.84C26.3733 28.0933 25.12 27.1067 24 25.88C24.0267 25.4533 24.2 24.9733 24.52 24.44C24.8667 23.88 25.2667 23.3733 25.72 22.92C26.2 22.44 26.6533 22.1467 27.08 22.04C27.5067 22.04 27.9867 22.2133 28.52 22.56C29.0533 22.88 29.5467 23.28 30 23.76C30.4533 24.2133 30.72 24.6533 30.8 25.08C30.7733 25.5333 30.5867 26.04 30.24 26.6C29.8933 27.1333 29.4933 27.6133 29.04 28.04C28.5867 28.44 28.16 28.7067 27.76 28.84ZM64.0131 15.76L55.0131 14.88L54.6531 26.08L54.7731 39.08L52.5331 39.64C51.8398 39.2933 51.1331 38.8267 50.4131 38.24C49.6931 37.6267 49.1065 36.8933 48.6531 36.04L50.5331 25.56L50.2131 15.08L43.8931 16.04C43.2265 15.6133 42.6531 15.1733 42.1731 14.72C41.6931 14.2667 41.1865 13.6933 40.6531 13L41.4131 10.68L52.9331 11L61.5331 10.36C62.3865 10.9467 63.0665 11.4933 63.5731 12C64.0798 12.48 64.5065 12.9733 64.8531 13.48L64.0131 15.76ZM74.6672 18.36C75.2805 18.68 75.8672 19.28 76.4272 20.16C77.0139 21.0133 77.4272 21.9067 77.6672 22.84L77.3072 27.84C76.8539 28.16 76.2805 28.4 75.5872 28.56C74.8939 28.6933 74.2539 28.7733 73.6672 28.8L72.7072 27.88C72.8405 26.8933 72.9205 26.0267 72.9472 25.28C73.0005 24.5067 72.9739 23.8267 72.8672 23.24C72.0405 23.8533 71.2672 24.7467 70.5472 25.92C69.8539 27.0667 69.2139 28.3467 68.6272 29.76L68.7472 39C68.1605 39.16 67.4805 39.24 66.7072 39.24C65.9339 39.24 65.2405 39.16 64.6272 39C63.8005 38.12 63.1205 37.12 62.5872 36C62.7739 35.12 63.0405 34.1867 63.3872 33.2C63.7339 32.1867 64.1339 31.1867 64.5872 30.2V28.76L64.1072 23.24L60.6272 24.12C60.4405 23.8 60.2139 23.36 59.9472 22.8C59.6805 22.2133 59.5205 21.6133 59.4672 21L64.8672 18.36C65.1339 18.3867 65.5072 18.5333 65.9872 18.8C66.4939 19.0667 66.9872 19.36 67.4672 19.68C67.9739 19.9733 68.3472 20.2267 68.5872 20.44L68.4272 23.6C69.5205 22.08 70.6272 20.8267 71.7472 19.84C72.8672 18.8533 73.8405 18.36 74.6672 18.36ZM98.7197 33.84C98.9597 34.16 99.1997 34.6133 99.4397 35.2C99.6797 35.7867 99.8264 36.3867 99.8797 37L94.4797 39.64C93.8397 39.4533 93.1464 39.1467 92.3997 38.72C91.6797 38.2933 91.133 37.9067 90.7597 37.56L90.9197 34.64C89.5864 36.1067 88.2397 37.28 86.8797 38.16C85.5197 39.04 84.333 39.5333 83.3197 39.64C82.9197 39.4267 82.4264 39.0533 81.8397 38.52C81.2797 37.96 80.7464 37.3467 80.2397 36.68C79.7597 35.9867 79.4397 35.3333 79.2797 34.72L80.1197 23.68C80.5197 22.8267 81.093 21.9733 81.8397 21.12C82.5864 20.24 83.333 19.5333 84.0797 19C85.9997 18.6533 87.8664 18.4533 89.6797 18.4C91.493 18.32 93.493 18.6267 95.6797 19.32C95.973 19.64 96.2397 20.0267 96.4797 20.48C96.7197 20.9333 96.9197 21.3733 97.0797 21.8C97.2664 22.2 97.373 22.5067 97.3997 22.72C97.133 23.8933 96.773 25.04 96.3197 26.16C95.893 27.28 95.373 28.3467 94.7597 29.36L95.2397 34.72L98.7197 33.84ZM84.7997 34.76C85.7597 34.4133 86.813 33.6667 87.9597 32.52C89.133 31.3733 90.1997 30.0133 91.1597 28.44L91.3197 22.4C90.2264 22.3733 89.173 22.4267 88.1597 22.56C87.1464 22.6933 86.1864 22.8933 85.2797 23.16C84.7997 24.4933 84.453 25.8533 84.2397 27.24C84.053 28.6 83.9597 29.8667 83.9597 31.04C83.9864 32.1867 84.0797 33.1067 84.2397 33.8C84.3997 34.4933 84.5864 34.8133 84.7997 34.76ZM117.637 18.92C117.93 19.2133 118.223 19.6 118.517 20.08C118.81 20.5333 119.063 20.9733 119.277 21.4C119.517 21.8 119.65 22.1067 119.677 22.32C119.143 25.7333 118.263 28.68 117.037 31.16C115.81 33.64 114.423 35.6 112.877 37.04C111.357 38.4533 109.863 39.32 108.397 39.64C107.97 39.4 107.437 39.0133 106.797 38.48C106.183 37.9467 105.61 37.3467 105.077 36.68C104.543 35.9867 104.157 35.3333 103.917 34.72L102.557 23.52L99.6366 24.28C99.3966 23.96 99.1566 23.48 98.9166 22.84C98.6766 22.1733 98.5299 21.5333 98.4766 20.92L104.357 18.36C104.97 18.6 105.65 19.08 106.397 19.8C107.17 20.4933 107.77 21.2133 108.197 21.96C107.77 23.4267 107.543 24.9333 107.517 26.48C107.49 28.0267 107.597 29.44 107.837 30.72C108.077 32 108.343 33.0133 108.637 33.76C108.957 34.5067 109.237 34.84 109.477 34.76C110.25 34.4667 111.01 33.7867 111.757 32.72C112.53 31.6533 113.223 30.3867 113.837 28.92L112.317 19.76C112.903 19.4933 113.69 19.2667 114.677 19.08C115.663 18.8667 116.65 18.8133 117.637 18.92ZM136.597 32.72C136.783 32.96 136.983 33.4267 137.197 34.12C137.437 34.8133 137.543 35.4267 137.517 35.96C136.37 36.44 135.17 36.92 133.917 37.4C132.663 37.8533 131.49 38.28 130.397 38.68C129.33 39.08 128.45 39.4 127.757 39.64C126.93 39.4267 126.063 39.0933 125.157 38.64C124.25 38.1867 123.423 37.6533 122.677 37.04C121.93 36.4 121.397 35.76 121.077 35.12L121.637 22.88C122.01 22.2133 122.53 21.5467 123.197 20.88C123.89 20.1867 124.57 19.56 125.237 19C126.783 18.6533 128.29 18.44 129.757 18.36C131.25 18.28 132.677 18.3467 134.037 18.56C134.277 18.6933 134.597 18.9867 134.997 19.44C135.423 19.8667 135.837 20.3067 136.237 20.76C136.637 21.2133 136.903 21.5467 137.037 21.76L136.877 27.72C136.183 28.2267 135.25 28.76 134.077 29.32C132.903 29.88 131.61 30.4267 130.197 30.96C128.783 31.4667 127.37 31.92 125.957 32.32C125.983 32.8267 126.023 33.32 126.077 33.8C126.13 34.28 126.197 34.7467 126.277 35.2L136.597 32.72ZM132.597 22.68C131.637 22.5467 130.703 22.5067 129.797 22.56C128.89 22.6133 127.943 22.7733 126.957 23.04C126.69 23.8667 126.477 24.76 126.317 25.72C126.157 26.68 126.037 27.6533 125.957 28.64C127.103 28.2667 128.303 27.7867 129.557 27.2C130.837 26.5867 131.997 25.9467 133.037 25.28L132.597 22.68ZM149.467 33.84C149.68 34.16 149.907 34.6133 150.147 35.2C150.413 35.7867 150.573 36.3867 150.627 37L145.227 39.64C144.24 39.1867 143.373 38.64 142.627 38C141.88 37.36 141.32 36.6933 140.947 36L141.787 22.88L142.107 11.32L138.987 12.12C138.8 11.8 138.573 11.36 138.307 10.8C138.04 10.2133 137.88 9.61333 137.827 9L143.227 6.36C143.493 6.38666 143.907 6.52 144.467 6.76C145.053 7 145.627 7.28 146.187 7.6C146.747 7.92 147.147 8.2 147.387 8.44L145.667 23.24L145.987 34.76L149.467 33.84Z" fill="#3E82CD"/>
<path d="M27.76 28.84L27.2859 29.7205L27.6663 29.9253L28.0762 29.7887L27.76 28.84ZM24 25.88L23.0019 25.8176L22.9755 26.241L23.2615 26.5543L24 25.88ZM24.52 24.44L23.6697 23.9136L23.6625 23.9255L24.52 24.44ZM25.72 22.92L26.4271 23.6271L26.4271 23.6271L25.72 22.92ZM27.08 22.04V21.04H26.9569L26.8375 21.0699L27.08 22.04ZM28.52 22.56L27.975 23.3984L27.9901 23.4082L28.0055 23.4175L28.52 22.56ZM30 23.76L29.273 24.4466L29.2828 24.457L29.2929 24.4671L30 23.76ZM30.8 25.08L31.7983 25.1387L31.8055 25.0163L31.7829 24.8957L30.8 25.08ZM30.24 26.6L31.0784 27.145L31.0845 27.1357L31.0903 27.1264L30.24 26.6ZM29.04 28.04L29.7016 28.7898L29.7137 28.7792L29.7254 28.7682L29.04 28.04ZM28.2341 27.9595C26.9519 27.2691 25.7868 26.3539 24.7385 25.2057L23.2615 26.5543C24.4532 27.8595 25.7948 28.9176 27.2859 29.7205L28.2341 27.9595ZM24.9981 25.9424C25.0112 25.7316 25.1051 25.4085 25.3775 24.9545L23.6625 23.9255C23.2949 24.5381 23.0421 25.1751 23.0019 25.8176L24.9981 25.9424ZM25.3703 24.9664C25.6775 24.4701 26.0298 24.0244 26.4271 23.6271L25.0129 22.2129C24.5036 22.7222 24.0559 23.2899 23.6697 23.9136L25.3703 24.9664ZM26.4271 23.6271C26.8429 23.2113 27.1425 23.0551 27.3225 23.0101L26.8375 21.0699C26.1641 21.2382 25.5571 21.6687 25.0129 22.2129L26.4271 23.6271ZM27.08 23.04C27.2401 23.04 27.5292 23.1087 27.975 23.3984L29.065 21.7216C28.4441 21.318 27.7733 21.04 27.08 21.04V23.04ZM28.0055 23.4175C28.4559 23.6877 28.8785 24.0289 29.273 24.4466L30.727 23.0734C30.2148 22.5311 29.6508 22.0723 29.0345 21.7025L28.0055 23.4175ZM29.2929 24.4671C29.668 24.8423 29.7881 25.1094 29.8171 25.2643L31.7829 24.8957C31.6519 24.1972 31.2386 23.5844 30.7071 23.0529L29.2929 24.4671ZM29.8017 25.0213C29.7882 25.251 29.6857 25.5955 29.3897 26.0736L31.0903 27.1264C31.4876 26.4845 31.7585 25.8157 31.7983 25.1387L29.8017 25.0213ZM29.4016 26.055C29.0975 26.5228 28.7485 26.9411 28.3546 27.3118L29.7254 28.7682C30.2381 28.2856 30.6892 27.7438 31.0784 27.145L29.4016 26.055ZM28.3784 27.2902C27.9854 27.6369 27.6739 27.8146 27.4438 27.8913L28.0762 29.7887C28.6461 29.5987 29.1879 29.2431 29.7016 28.7898L28.3784 27.2902ZM64.0131 15.76L63.9158 16.7553L64.6845 16.8304L64.9515 16.1057L64.0131 15.76ZM55.0131 14.88L55.1104 13.8847L54.0479 13.7809L54.0136 14.8479L55.0131 14.88ZM54.6531 26.08L53.6536 26.0479L53.653 26.0685L53.6532 26.0892L54.6531 26.08ZM54.7731 39.08L55.0157 40.0501L55.7804 39.859L55.7731 39.0708L54.7731 39.08ZM52.5331 39.64L52.0859 40.5344L52.4168 40.6999L52.7757 40.6101L52.5331 39.64ZM50.4131 38.24L49.7647 39.0012L49.773 39.0083L49.7815 39.0152L50.4131 38.24ZM48.6531 36.04L47.6688 35.8634L47.6078 36.2038L47.77 36.5092L48.6531 36.04ZM50.5331 25.56L51.5174 25.7366L51.5358 25.6338L51.5327 25.5295L50.5331 25.56ZM50.2131 15.08L51.2127 15.0495L51.1782 13.9219L50.0629 14.0913L50.2131 15.08ZM43.8931 16.04L43.3541 16.8823L43.6711 17.0852L44.0433 17.0287L43.8931 16.04ZM42.1731 14.72L42.8597 13.993L42.8597 13.993L42.1731 14.72ZM40.6531 13L39.7028 12.6887L39.5383 13.1909L39.8605 13.6097L40.6531 13ZM41.4131 10.68L41.4409 9.68039L40.6951 9.65967L40.4628 10.3687L41.4131 10.68ZM52.9331 11L52.9054 11.9996L52.9564 12.001L53.0073 11.9972L52.9331 11ZM61.5331 10.36L62.0997 9.53596L61.8097 9.33665L61.4589 9.36276L61.5331 10.36ZM63.5731 12L62.866 12.7071L62.8756 12.7167L62.8854 12.726L63.5731 12ZM64.8531 13.48L65.7915 13.8257L65.9699 13.3413L65.6784 12.9153L64.8531 13.48ZM64.1104 14.7647L55.1104 13.8847L54.9158 15.8753L63.9158 16.7553L64.1104 14.7647ZM54.0136 14.8479L53.6536 26.0479L55.6526 26.1121L56.0126 14.9121L54.0136 14.8479ZM53.6532 26.0892L53.7732 39.0892L55.7731 39.0708L55.6531 26.0708L53.6532 26.0892ZM54.5306 38.1099L52.2906 38.6699L52.7757 40.6101L55.0157 40.0501L54.5306 38.1099ZM52.9803 38.7456C52.3641 38.4374 51.7187 38.0139 51.0448 37.4648L49.7815 39.0152C50.5476 39.6395 51.3155 40.1492 52.0859 40.5344L52.9803 38.7456ZM51.0616 37.4788C50.4396 36.9489 49.9318 36.3154 49.5362 35.5708L47.77 36.5092C48.2812 37.4713 48.9466 38.3044 49.7647 39.0012L51.0616 37.4788ZM49.6374 36.2166L51.5174 25.7366L49.5488 25.3834L47.6688 35.8634L49.6374 36.2166ZM51.5327 25.5295L51.2127 15.0495L49.2136 15.1105L49.5336 25.5905L51.5327 25.5295ZM50.0629 14.0913L43.7429 15.0513L44.0433 17.0287L50.3633 16.0687L50.0629 14.0913ZM44.4322 15.1977C43.8082 14.7984 43.2864 14.3959 42.8597 13.993L41.4865 15.447C42.0199 15.9508 42.6447 16.4283 43.3541 16.8823L44.4322 15.1977ZM42.8597 13.993C42.4281 13.5854 41.9566 13.0544 41.4457 12.3903L39.8605 13.6097C40.4163 14.3323 40.9581 14.948 41.4865 15.447L42.8597 13.993ZM41.6034 13.3113L42.3634 10.9913L40.4628 10.3687L39.7028 12.6887L41.6034 13.3113ZM41.3854 11.6796L52.9054 11.9996L52.9609 10.0004L41.4409 9.68039L41.3854 11.6796ZM53.0073 11.9972L61.6073 11.3572L61.4589 9.36276L52.8589 10.0028L53.0073 11.9972ZM60.9666 11.184C61.7897 11.7499 62.4169 12.258 62.866 12.7071L64.2802 11.2929C63.716 10.7287 62.9832 10.1434 62.0997 9.53596L60.9666 11.184ZM62.8854 12.726C63.3475 13.1637 63.7262 13.6038 64.0278 14.0447L65.6784 12.9153C65.2868 12.3429 64.8121 11.7963 64.2609 11.274L62.8854 12.726ZM63.9148 13.1343L63.0748 15.4143L64.9515 16.1057L65.7915 13.8257L63.9148 13.1343ZM74.6672 18.36L75.1298 17.4734L74.9124 17.36H74.6672V18.36ZM76.4272 20.16L75.5835 20.6969L75.5931 20.7119L75.6031 20.7265L76.4272 20.16ZM77.6672 22.84L78.6646 22.9118L78.6763 22.749L78.6357 22.591L77.6672 22.84ZM77.3072 27.84L77.8839 28.657L78.2706 28.384L78.3046 27.9118L77.3072 27.84ZM75.5872 28.56L75.776 29.542L75.7941 29.5385L75.812 29.5344L75.5872 28.56ZM73.6672 28.8L72.9753 29.522L73.2846 29.8184L73.7126 29.799L73.6672 28.8ZM72.7072 27.88L71.7162 27.7461L71.6481 28.2501L72.0153 28.602L72.7072 27.88ZM72.9472 25.28L71.9496 25.2112L71.9484 25.2277L71.9478 25.2443L72.9472 25.28ZM72.8672 23.24L73.8511 23.0611L73.5633 21.4784L72.2713 22.4369L72.8672 23.24ZM70.5472 25.92L69.6948 25.397L69.6915 25.4026L70.5472 25.92ZM68.6272 29.76L67.7036 29.3766L67.6246 29.5669L67.6273 29.773L68.6272 29.76ZM68.7472 39L69.0103 39.9648L69.7572 39.7611L69.7471 38.987L68.7472 39ZM64.6272 39L63.8983 39.6847L64.0958 39.8948L64.3748 39.9676L64.6272 39ZM62.5872 36L61.609 35.7925L61.5386 36.124L61.6843 36.4299L62.5872 36ZM63.3872 33.2L64.3307 33.5315L64.3334 33.5237L63.3872 33.2ZM64.5872 30.2L65.4959 30.6175L65.5872 30.4187V30.2H64.5872ZM64.5872 28.76H65.5872V28.7166L65.5834 28.6734L64.5872 28.76ZM64.1072 23.24L65.1034 23.1534L65.0016 21.9823L63.862 22.2705L64.1072 23.24ZM60.6272 24.12L59.7634 24.6239L60.1427 25.274L60.8723 25.0895L60.6272 24.12ZM59.9472 22.8L59.0368 23.2138L59.0405 23.2219L59.0443 23.2299L59.9472 22.8ZM59.4672 21L59.028 20.1016L58.4115 20.403L58.4709 21.0866L59.4672 21ZM64.8672 18.36L64.9667 17.365L64.6836 17.3367L64.428 17.4616L64.8672 18.36ZM65.9872 18.8L65.5015 19.6742L65.5114 19.6797L65.5214 19.6849L65.9872 18.8ZM67.4672 19.68L66.9125 20.512L66.9388 20.5296L66.9662 20.5454L67.4672 19.68ZM68.5872 20.44L69.5859 20.4906L69.6102 20.0114L69.2516 19.6926L68.5872 20.44ZM68.4272 23.6L67.4285 23.5494L67.2568 26.9396L69.239 24.1839L68.4272 23.6ZM74.2046 19.2466C74.6029 19.4544 75.0735 19.8954 75.5835 20.6969L77.2708 19.6231C76.6609 18.6646 75.9581 17.9056 75.1298 17.4734L74.2046 19.2466ZM75.6031 20.7265C76.1284 21.4905 76.49 22.2774 76.6987 23.089L78.6357 22.591C78.3644 21.536 77.8993 20.5361 77.2512 19.5935L75.6031 20.7265ZM76.6698 22.7682L76.3098 27.7682L78.3046 27.9118L78.6646 22.9118L76.6698 22.7682ZM76.7305 27.023C76.4084 27.2504 75.9634 27.4469 75.3623 27.5856L75.812 29.5344C76.5976 29.3531 77.2993 29.0696 77.8839 28.657L76.7305 27.023ZM75.3983 27.578C74.7432 27.704 74.1518 27.7769 73.6218 27.801L73.7126 29.799C74.3559 29.7697 75.0445 29.6827 75.776 29.542L75.3983 27.578ZM74.3591 28.078L73.3991 27.158L72.0153 28.602L72.9753 29.522L74.3591 28.078ZM73.6982 28.0139C73.8346 27.0046 73.9184 26.1039 73.9466 25.3157L71.9478 25.2443C71.9226 25.9494 71.8465 26.782 71.7162 27.7461L73.6982 28.0139ZM73.9448 25.3488C74.0023 24.5159 73.9762 23.7496 73.8511 23.0611L71.8833 23.4189C71.9715 23.9037 71.9988 24.4974 71.9496 25.2112L73.9448 25.3488ZM72.2713 22.4369C71.3138 23.1473 70.4604 24.1494 69.6949 25.397L71.3995 26.443C72.0739 25.3439 72.7672 24.5594 73.463 24.0431L72.2713 22.4369ZM69.6915 25.4026C68.9688 26.5977 68.3068 27.9233 67.7036 29.3766L69.5508 30.1434C70.1209 28.77 70.7389 27.5356 71.4029 26.4374L69.6915 25.4026ZM67.6273 29.773L67.7473 39.013L69.7471 38.987L69.6271 29.747L67.6273 29.773ZM68.4841 38.0352C68.0027 38.1665 67.4145 38.24 66.7072 38.24V40.24C67.5466 40.24 68.3183 40.1535 69.0103 39.9648L68.4841 38.0352ZM66.7072 38.24C66.0011 38.24 65.3948 38.1668 64.8796 38.0324L64.3748 39.9676C65.0862 40.1532 65.8666 40.24 66.7072 40.24V38.24ZM65.356 38.3153C64.6021 37.5128 63.9801 36.5993 63.49 35.5701L61.6843 36.4299C62.2609 37.6407 62.9989 38.7272 63.8983 39.6847L65.356 38.3153ZM63.5654 36.2075C63.7419 35.3756 63.996 34.484 64.3306 33.5315L62.4437 32.8685C62.085 33.8894 61.8058 34.8644 61.609 35.7925L63.5654 36.2075ZM64.3334 33.5237C64.669 32.5427 65.0564 31.574 65.4959 30.6175L63.6785 29.7825C63.2113 30.7994 62.7987 31.8307 62.441 32.8763L64.3334 33.5237ZM65.5872 30.2V28.76H63.5872V30.2H65.5872ZM65.5834 28.6734L65.1034 23.1534L63.1109 23.3266L63.5909 28.8466L65.5834 28.6734ZM63.862 22.2705L60.382 23.1505L60.8723 25.0895L64.3523 24.2095L63.862 22.2705ZM61.491 23.6161C61.3246 23.3308 61.1115 22.9192 60.85 22.3701L59.0443 23.2299C59.3162 23.8008 59.5565 24.2692 59.7634 24.6239L61.491 23.6161ZM60.8576 22.3862C60.6357 21.898 60.5065 21.4083 60.4634 20.9134L58.4709 21.0866C58.5346 21.8183 58.7254 22.5286 59.0368 23.2138L60.8576 22.3862ZM59.9064 21.8984L65.3064 19.2584L64.428 17.4616L59.028 20.1016L59.9064 21.8984ZM64.7677 19.355C64.7676 19.355 64.7724 19.3555 64.7825 19.3575C64.7926 19.3594 64.8069 19.3626 64.8258 19.3677C64.864 19.3781 64.9155 19.3948 64.9815 19.4207C65.1151 19.4732 65.2872 19.5551 65.5015 19.6742L66.4728 17.9258C65.9726 17.6479 65.4485 17.4131 64.9667 17.365L64.7677 19.355ZM65.5214 19.6849C65.9973 19.9354 66.461 20.2111 66.9125 20.512L68.0219 18.8479C67.5134 18.5089 66.9904 18.1979 66.4529 17.9151L65.5214 19.6849ZM66.9662 20.5454C67.4538 20.8277 67.7584 21.0413 67.9228 21.1874L69.2516 19.6926C68.936 19.4121 68.4939 19.1189 67.9682 18.8146L66.9662 20.5454ZM67.5885 20.3894L67.4285 23.5494L69.4259 23.6506L69.5859 20.4906L67.5885 20.3894ZM69.239 24.1839C70.299 22.7102 71.3567 21.5167 72.4082 20.5904L71.0862 19.0896C69.8977 20.1366 68.742 21.4498 67.6154 23.0161L69.239 24.1839ZM72.4082 20.5904C73.4774 19.6485 74.2156 19.36 74.6672 19.36V17.36C73.4655 17.36 72.257 18.0582 71.0862 19.0896L72.4082 20.5904ZM98.7197 33.84L99.5197 33.24L99.1201 32.7073L98.4745 32.8705L98.7197 33.84ZM99.8797 37L100.319 37.8984L100.935 37.597L100.876 36.9134L99.8797 37ZM94.4797 39.64L94.1997 40.6L94.5712 40.7084L94.9189 40.5384L94.4797 39.64ZM92.3997 38.72L91.8899 39.5803L91.8967 39.5843L91.9035 39.5882L92.3997 38.72ZM90.7597 37.56L89.7612 37.5053L89.7355 37.9736L90.0792 38.2928L90.7597 37.56ZM90.9197 34.64L91.9182 34.6947L92.0721 31.8857L90.1797 33.9673L90.9197 34.64ZM86.8797 38.16L86.3364 37.3204L86.3364 37.3204L86.8797 38.16ZM83.3197 39.64L82.8491 40.5224L83.1195 40.6666L83.4244 40.6345L83.3197 39.64ZM81.8397 38.52L81.1326 39.2271L81.1494 39.2439L81.167 39.2599L81.8397 38.52ZM80.2397 36.68L79.4175 37.2492L79.4301 37.2674L79.4435 37.2851L80.2397 36.68ZM79.2797 34.72L78.2826 34.6441L78.2699 34.8107L78.3121 34.9724L79.2797 34.72ZM80.1197 23.68L79.2142 23.2556L79.1365 23.4215L79.1226 23.6041L80.1197 23.68ZM81.8397 21.12L82.5923 21.7785L82.5973 21.7728L82.6022 21.767L81.8397 21.12ZM84.0797 19L83.902 18.0159L83.6811 18.0558L83.4985 18.1863L84.0797 19ZM89.6797 18.4L89.7091 19.3996L89.7164 19.3994L89.7238 19.399L89.6797 18.4ZM95.6797 19.32L96.4168 18.6443L96.2364 18.4475L95.9819 18.3668L95.6797 19.32ZM96.4797 20.48L97.3635 20.0121L97.3635 20.0121L96.4797 20.48ZM97.0797 21.8L96.1434 22.1511L96.157 22.1876L96.1735 22.2229L97.0797 21.8ZM97.3997 22.72L98.3748 22.9416L98.4138 22.7703L98.392 22.596L97.3997 22.72ZM96.3197 26.16L95.3927 25.7848L95.3889 25.7944L95.3852 25.804L96.3197 26.16ZM94.7597 29.36L93.9042 28.8422L93.7344 29.1227L93.7637 29.4492L94.7597 29.36ZM95.2397 34.72L94.2437 34.8092L94.3482 35.9769L95.4848 35.6895L95.2397 34.72ZM84.7997 34.76L85.0422 35.7301L85.0915 35.7178L85.1393 35.7006L84.7997 34.76ZM87.9597 32.52L87.2607 31.8048L87.2526 31.8129L87.9597 32.52ZM91.1597 28.44L92.0133 28.9609L92.1523 28.7331L92.1593 28.4665L91.1597 28.44ZM91.3197 22.4L92.3193 22.4265L92.3459 21.4247L91.3441 21.4003L91.3197 22.4ZM88.1597 22.56L88.2901 23.5515L88.2901 23.5515L88.1597 22.56ZM85.2797 23.16L84.9975 22.2006L84.5107 22.3438L84.3388 22.8213L85.2797 23.16ZM84.2397 27.24L83.2513 27.0879L83.2501 27.096L83.249 27.104L84.2397 27.24ZM83.9597 31.04H82.9597V31.0516L82.96 31.0632L83.9597 31.04ZM84.2397 33.8L85.2141 33.5751L85.2141 33.5751L84.2397 33.8ZM97.9197 34.44C98.0878 34.6642 98.29 35.0306 98.5141 35.5786L100.365 34.8214C100.109 34.196 99.8315 33.6558 99.5197 33.24L97.9197 34.44ZM98.5141 35.5786C98.7171 36.0749 98.8391 36.5766 98.8834 37.0866L100.876 36.9134C100.814 36.1967 100.642 35.4985 100.365 34.8214L98.5141 35.5786ZM99.4405 36.1016L94.0405 38.7416L94.9189 40.5384L100.319 37.8984L99.4405 36.1016ZM94.7597 38.68C94.2132 38.5206 93.5929 38.2501 92.8958 37.8518L91.9035 39.5882C92.6999 40.0433 93.4662 40.3861 94.1997 40.6L94.7597 38.68ZM92.9095 37.8597C92.2171 37.4494 91.7388 37.1045 91.4401 36.8272L90.0792 38.2928C90.5272 38.7088 91.1423 39.1373 91.8899 39.5803L92.9095 37.8597ZM91.7582 37.6147L91.9182 34.6947L89.9212 34.5853L89.7612 37.5053L91.7582 37.6147ZM90.1797 33.9673C88.8921 35.3838 87.6099 36.4964 86.3364 37.3204L87.4229 38.9996C88.8695 38.0636 90.2806 36.8296 91.6596 35.3127L90.1797 33.9673ZM86.3364 37.3204C85.0387 38.1601 84.0063 38.5622 83.215 38.6455L83.4244 40.6345C84.6597 40.5045 86.0007 39.9199 87.4229 38.9996L86.3364 37.3204ZM83.7903 38.7576C83.498 38.6018 83.0761 38.2926 82.5124 37.7801L81.167 39.2599C81.7766 39.8141 82.3414 40.2516 82.8491 40.5224L83.7903 38.7576ZM82.5468 37.8129C82.0205 37.2866 81.5167 36.7076 81.0358 36.0749L79.4435 37.2851C79.976 37.9857 80.5389 38.6334 81.1326 39.2271L82.5468 37.8129ZM81.0619 36.1108C80.6278 35.4838 80.3698 34.9371 80.2473 34.4676L78.3121 34.9724C78.5096 35.7296 78.8916 36.4895 79.4175 37.2492L81.0619 36.1108ZM80.2768 34.7959L81.1168 23.7559L79.1226 23.6041L78.2826 34.6441L80.2768 34.7959ZM81.0251 24.1044C81.3783 23.351 81.8952 22.5752 82.5923 21.7785L81.0871 20.4615C80.2908 21.3715 79.6611 22.3023 79.2142 23.2556L81.0251 24.1044ZM82.6022 21.767C83.3086 20.9345 83.9959 20.2887 84.6609 19.8137L83.4985 18.1863C82.6701 18.7779 81.8641 19.5455 81.0772 20.473L82.6022 21.767ZM84.2574 19.9841C86.132 19.6456 87.9491 19.4513 89.7091 19.3996L89.6503 17.4004C87.7836 17.4553 85.8673 17.6611 83.902 18.0159L84.2574 19.9841ZM89.7238 19.399C91.3935 19.3254 93.2744 19.6064 95.3774 20.2732L95.9819 18.3668C93.7116 17.6469 91.5925 17.3146 89.6356 17.401L89.7238 19.399ZM94.9425 19.9957C95.1691 20.2428 95.3887 20.5566 95.5959 20.9479L97.3635 20.0121C97.0906 19.4967 96.777 19.0372 96.4168 18.6443L94.9425 19.9957ZM95.5959 20.9479C95.8184 21.3681 96.0001 21.7691 96.1434 22.1511L98.016 21.4489C97.8393 20.9776 97.621 20.4986 97.3635 20.0121L95.5959 20.9479ZM96.1735 22.2229C96.3523 22.6061 96.4012 22.7943 96.4074 22.844L98.392 22.596C98.3448 22.219 98.1804 21.7939 97.9859 21.3771L96.1735 22.2229ZM96.4246 22.4984C96.1698 23.6191 95.826 24.7144 95.3927 25.7848L97.2466 26.5352C97.72 25.3656 98.0962 24.1676 98.3748 22.9416L96.4246 22.4984ZM95.3852 25.804C94.9797 26.8685 94.486 27.8809 93.9042 28.8422L95.6152 29.8778C96.26 28.8124 96.8064 27.6915 97.2542 26.516L95.3852 25.804ZM93.7637 29.4492L94.2437 34.8092L96.2357 34.6308L95.7557 29.2708L93.7637 29.4492ZM95.4848 35.6895L98.9648 34.8095L98.4745 32.8705L94.9945 33.7505L95.4848 35.6895ZM85.1393 35.7006C86.2952 35.2832 87.4708 34.4231 88.6668 33.2271L87.2526 31.8129C86.1553 32.9102 85.2242 33.5435 84.46 33.8194L85.1393 35.7006ZM88.6586 33.2352C89.8982 32.0238 91.0153 30.5966 92.0133 28.9609L90.306 27.9191C89.3841 29.4301 88.3679 30.7229 87.2608 31.8048L88.6586 33.2352ZM92.1593 28.4665L92.3193 22.4265L90.32 22.3735L90.16 28.4135L92.1593 28.4665ZM91.3441 21.4003C90.2026 21.3725 89.0973 21.428 88.0292 21.5685L88.2901 23.5515C89.2487 23.4253 90.2501 23.3742 91.2953 23.3997L91.3441 21.4003ZM88.0292 21.5685C86.9687 21.7081 85.9577 21.9182 84.9975 22.2006L85.5619 24.1194C86.415 23.8684 87.324 23.6786 88.2901 23.5515L88.0292 21.5685ZM84.3388 22.8213C83.8372 24.2145 83.4745 25.637 83.2513 27.0879L85.2281 27.3921C85.4315 26.0696 85.7622 24.7721 86.2206 23.4987L84.3388 22.8213ZM83.249 27.104C83.0571 28.5017 82.9597 29.8143 82.9597 31.04H84.9597C84.9597 29.919 85.0489 28.6983 85.2304 27.376L83.249 27.104ZM82.96 31.0632C82.9874 32.242 83.0837 33.2378 83.2653 34.0249L85.2141 33.5751C85.0757 32.9756 84.9853 32.1313 84.9594 31.0167L82.96 31.0632ZM83.2653 34.0249C83.3511 34.3969 83.4645 34.7701 83.6359 35.0639C83.7217 35.211 83.8632 35.4109 84.09 35.5621C84.35 35.7354 84.6884 35.8186 85.0422 35.7301L84.5572 33.7899C84.6656 33.7627 84.7871 33.7567 84.911 33.7807C85.0326 33.8043 85.1295 33.8514 85.1994 33.8979C85.267 33.943 85.3097 33.9877 85.3318 34.0136C85.3434 34.0271 85.3513 34.038 85.3561 34.0449C85.3609 34.0518 85.3633 34.0558 85.3635 34.0561C85.3635 34.0562 85.3579 34.0464 85.3478 34.0232C85.3378 34.0004 85.3253 33.9687 85.3109 33.9263C85.2815 33.8406 85.2487 33.7252 85.2141 33.5751L83.2653 34.0249ZM117.637 18.92L118.344 18.2129L118.094 17.9637L117.744 17.9258L117.637 18.92ZM118.517 20.08L117.663 20.6014L117.67 20.6124L117.677 20.6233L118.517 20.08ZM119.277 21.4L118.382 21.8472L118.399 21.8816L118.419 21.9145L119.277 21.4ZM119.677 22.32L120.665 22.4744L120.686 22.3355L120.669 22.196L119.677 22.32ZM117.037 31.16L116.14 30.7166L116.14 30.7166L117.037 31.16ZM112.877 37.04L113.558 37.7723L113.558 37.7719L112.877 37.04ZM108.397 39.64L107.906 40.5116L108.238 40.6981L108.61 40.617L108.397 39.64ZM106.797 38.48L106.14 39.2346L106.148 39.2415L106.156 39.2482L106.797 38.48ZM105.077 36.68L104.284 37.2897L104.29 37.2973L104.296 37.3047L105.077 36.68ZM103.917 34.72L102.924 34.8405L102.939 34.9664L102.985 35.0844L103.917 34.72ZM102.557 23.52L103.549 23.3995L103.411 22.2642L102.305 22.5522L102.557 23.52ZM99.6366 24.28L98.8366 24.88L99.2391 25.4168L99.8884 25.2478L99.6366 24.28ZM98.9166 22.84L97.9756 23.1787L97.9802 23.1911L98.9166 22.84ZM98.4766 20.92L98.0774 20.0031L97.418 20.2902L97.4803 21.0066L98.4766 20.92ZM104.357 18.36L104.721 17.4288L104.336 17.2782L103.957 17.4431L104.357 18.36ZM106.397 19.8L105.702 20.5198L105.715 20.5324L105.729 20.5446L106.397 19.8ZM108.197 21.96L109.157 22.2393L109.275 21.8321L109.065 21.4639L108.197 21.96ZM108.637 33.76L107.706 34.1257L107.711 34.1399L107.717 34.1539L108.637 33.76ZM109.477 34.76L109.793 35.7087L109.812 35.7022L109.831 35.695L109.477 34.76ZM111.757 32.72L110.947 32.133L110.942 32.1397L110.937 32.1465L111.757 32.72ZM113.837 28.92L114.759 29.3058L114.87 29.0403L114.823 28.7563L113.837 28.92ZM112.317 19.76L111.903 18.8496L111.204 19.167L111.33 19.9237L112.317 19.76ZM114.677 19.08L114.862 20.0626L114.875 20.0602L114.888 20.0574L114.677 19.08ZM116.929 19.6271C117.151 19.8488 117.398 20.1667 117.663 20.6014L119.37 19.5586C119.049 19.0333 118.709 18.5779 118.344 18.2129L116.929 19.6271ZM117.677 20.6233C117.953 21.0496 118.187 21.4575 118.382 21.8472L120.171 20.9528C119.939 20.4892 119.667 20.0171 119.356 19.5367L117.677 20.6233ZM118.419 21.9145C118.525 22.0906 118.595 22.2273 118.639 22.3287C118.687 22.4374 118.687 22.4693 118.684 22.444L120.669 22.196C120.614 21.7589 120.381 21.2974 120.134 20.8855L118.419 21.9145ZM118.689 22.1656C118.167 25.5024 117.312 28.3471 116.14 30.7166L117.933 31.6034C119.214 29.0129 120.119 25.9643 120.665 22.4744L118.689 22.1656ZM116.14 30.7166C114.951 33.12 113.631 34.9716 112.195 36.3081L113.558 37.7719C115.216 36.2284 116.668 34.16 117.933 31.6034L116.14 30.7166ZM112.196 36.3077C110.759 37.6437 109.42 38.3931 108.183 38.663L108.61 40.617C110.306 40.2469 111.954 39.263 113.558 37.7723L112.196 36.3077ZM108.887 38.7684C108.537 38.5718 108.058 38.2292 107.437 37.7118L106.156 39.2482C106.816 39.7975 107.403 40.2282 107.906 40.5116L108.887 38.7684ZM107.453 37.7254C106.887 37.2335 106.355 36.6774 105.857 36.0553L104.296 37.3047C104.865 38.016 105.479 38.6599 106.14 39.2346L107.453 37.7254ZM105.869 36.0703C105.376 35.4289 105.044 34.8577 104.848 34.3556L102.985 35.0844C103.269 35.809 103.711 36.5445 104.284 37.2897L105.869 36.0703ZM104.909 34.5995L103.549 23.3995L101.564 23.6405L102.924 34.8405L104.909 34.5995ZM102.305 22.5522L99.3847 23.3122L99.8884 25.2478L102.808 24.4878L102.305 22.5522ZM100.437 23.68C100.28 23.4712 100.08 23.0933 99.8529 22.4889L97.9802 23.1911C98.2336 23.8667 98.5132 24.4488 98.8366 24.88L100.437 23.68ZM99.8574 22.5013C99.6424 21.9039 99.5176 21.3488 99.4728 20.8334L97.4803 21.0066C97.5422 21.7178 97.7107 22.4427 97.9757 23.1787L99.8574 22.5013ZM98.8757 21.8369L104.756 19.2769L103.957 17.4431L98.0774 20.0031L98.8757 21.8369ZM103.992 19.2912C104.433 19.4636 105.002 19.8446 105.702 20.5198L107.091 19.0802C106.298 18.3154 105.507 17.7364 104.721 17.4288L103.992 19.2912ZM105.729 20.5446C106.439 21.1807 106.965 21.8195 107.328 22.4561L109.065 21.4639C108.575 20.6072 107.901 19.8059 107.064 19.0554L105.729 20.5446ZM107.236 21.6807C106.785 23.2336 106.545 24.8285 106.517 26.4628L108.516 26.4972C108.542 25.0382 108.755 23.6197 109.157 22.2393L107.236 21.6807ZM106.517 26.4628C106.489 28.0648 106.599 29.5469 106.854 30.9043L108.819 30.5357C108.594 29.3331 108.491 27.9885 108.516 26.4972L106.517 26.4628ZM106.854 30.9043C107.099 32.2131 107.38 33.2956 107.706 34.1257L109.567 33.3943C109.307 32.7311 109.054 31.7869 108.819 30.5357L106.854 30.9043ZM107.717 34.1539C107.889 34.5537 108.085 34.9323 108.321 35.2132C108.517 35.4465 109.048 35.9569 109.793 35.7087L109.16 33.8113C109.261 33.7778 109.37 33.7649 109.478 33.775C109.583 33.7848 109.667 33.8145 109.727 33.8435C109.835 33.8962 109.873 33.9521 109.852 33.9268C109.836 33.908 109.799 33.8572 109.743 33.7569C109.689 33.6592 109.626 33.5305 109.556 33.3661L107.717 34.1539ZM109.831 35.695C110.872 35.3004 111.775 34.4375 112.576 33.2935L110.937 32.1465C110.245 33.1359 109.628 33.633 109.122 33.825L109.831 35.695ZM112.566 33.307C113.393 32.1666 114.122 30.8296 114.759 29.3058L112.914 28.5342C112.325 29.9438 111.667 31.1401 110.947 32.133L112.566 33.307ZM114.823 28.7563L113.303 19.5963L111.33 19.9237L112.85 29.0837L114.823 28.7563ZM112.73 20.6704C113.216 20.4498 113.916 20.2416 114.862 20.0626L114.491 18.0974C113.464 18.2917 112.591 18.5369 111.903 18.8496L112.73 20.6704ZM114.888 20.0574C115.772 19.8663 116.651 19.8192 117.529 19.9142L117.744 17.9258C116.649 17.8074 115.555 17.867 114.465 18.1026L114.888 20.0574ZM136.597 32.72L137.386 32.1061L136.99 31.597L136.363 31.7477L136.597 32.72ZM137.197 34.12L136.241 34.4141L136.246 34.4307L136.252 34.4471L137.197 34.12ZM137.517 35.96L137.903 36.8824L138.484 36.6392L138.515 36.0099L137.517 35.96ZM133.917 37.4L134.257 38.3404L134.265 38.3372L134.274 38.3339L133.917 37.4ZM130.397 38.68L130.053 37.7408L130.045 37.7437L130.397 38.68ZM127.757 39.64L127.507 40.6083L127.799 40.6836L128.084 40.585L127.757 39.64ZM125.157 38.64L124.709 39.5344L124.709 39.5344L125.157 38.64ZM122.677 37.04L122.026 37.7993L122.034 37.8061L122.042 37.8127L122.677 37.04ZM121.077 35.12L120.078 35.0743L120.066 35.3344L120.182 35.5672L121.077 35.12ZM121.637 22.88L120.764 22.3914L120.648 22.5979L120.638 22.8343L121.637 22.88ZM123.197 20.88L123.904 21.5871L123.904 21.5871L123.197 20.88ZM125.237 19L125.018 18.0242L124.78 18.0775L124.593 18.2343L125.237 19ZM129.757 18.36L129.703 17.3614L129.702 17.3615L129.757 18.36ZM134.037 18.56L134.522 17.6858L134.367 17.5996L134.192 17.5721L134.037 18.56ZM134.997 19.44L134.247 20.1016L134.267 20.125L134.289 20.1471L134.997 19.44ZM136.237 20.76L136.986 20.0984L136.986 20.0984L136.237 20.76ZM137.037 21.76L138.036 21.7868L138.044 21.4856L137.885 21.23L137.037 21.76ZM136.877 27.72L137.467 28.5274L137.863 28.2377L137.876 27.7468L136.877 27.72ZM130.197 30.96L130.534 31.9013L130.542 31.8985L130.55 31.8956L130.197 30.96ZM125.957 32.32L125.684 31.3578L124.916 31.5752L124.958 32.3726L125.957 32.32ZM126.077 33.8L127.07 33.6896L127.07 33.6896L126.077 33.8ZM126.277 35.2L125.292 35.3738L125.477 36.4207L126.51 36.1723L126.277 35.2ZM132.597 22.68L133.583 22.5131L133.46 21.7904L132.734 21.6895L132.597 22.68ZM129.797 22.56L129.738 21.5617L129.797 22.56ZM126.957 23.04L126.696 22.0746L126.172 22.2163L126.005 22.733L126.957 23.04ZM125.957 28.64L124.96 28.5592L124.838 30.0557L126.266 29.5909L125.957 28.64ZM129.557 27.2L129.981 28.1057L129.989 28.1018L129.557 27.2ZM133.037 25.28L133.576 26.1219L134.133 25.7651L134.023 25.1131L133.037 25.28ZM135.807 33.3339C135.87 33.4146 136.027 33.7198 136.241 34.4141L138.152 33.8259C137.939 33.1335 137.697 32.5054 137.386 32.1061L135.807 33.3339ZM136.252 34.4471C136.464 35.0617 136.536 35.5429 136.518 35.9101L138.515 36.0099C138.55 35.3105 138.409 34.565 138.142 33.7929L136.252 34.4471ZM137.13 35.0376C135.994 35.5133 134.803 35.9895 133.559 36.4661L134.274 38.3339C135.536 37.8505 136.746 37.3667 137.903 36.8824L137.13 35.0376ZM133.576 36.4596C132.322 36.9133 131.148 37.3404 130.053 37.7409L130.74 39.6191C131.832 39.2196 133.004 38.7934 134.257 38.3404L133.576 36.4596ZM130.045 37.7437C128.983 38.1421 128.112 38.4589 127.429 38.695L128.084 40.585C128.788 40.3411 129.677 40.0179 130.748 39.6163L130.045 37.7437ZM128.006 38.6717C127.259 38.4789 126.459 38.1731 125.604 37.7456L124.709 39.5344C125.668 40.0136 126.601 40.3744 127.507 40.6083L128.006 38.6717ZM125.604 37.7456C124.761 37.324 123.997 36.8309 123.311 36.2673L122.042 37.8127C122.849 38.4758 123.739 39.0493 124.709 39.5344L125.604 37.7456ZM123.327 36.2807C122.646 35.6971 122.214 35.1579 121.971 34.6728L120.182 35.5672C120.58 36.3621 121.213 37.1029 122.026 37.7993L123.327 36.2807ZM122.076 35.1657L122.636 22.9257L120.638 22.8343L120.078 35.0743L122.076 35.1657ZM122.509 23.3686C122.829 22.7981 123.287 22.2034 123.904 21.5871L122.489 20.1729C121.772 20.89 121.191 21.6285 120.764 22.3914L122.509 23.3686ZM123.904 21.5871C124.579 20.9117 125.238 20.305 125.88 19.7657L124.593 18.2343C123.902 18.815 123.201 19.4616 122.489 20.1729L123.904 21.5871ZM125.455 19.9758C126.952 19.6403 128.404 19.4353 129.811 19.3585L129.702 17.3615C128.176 17.4447 126.614 17.6664 125.018 18.0242L125.455 19.9758ZM129.81 19.3586C131.24 19.282 132.596 19.3463 133.882 19.5479L134.192 17.5721C132.757 17.347 131.26 17.278 129.703 17.3614L129.81 19.3586ZM133.551 19.4342C133.629 19.4778 133.854 19.656 134.247 20.1016L135.746 18.7784C135.34 18.3173 134.924 17.9089 134.522 17.6858L133.551 19.4342ZM134.289 20.1471C134.701 20.559 135.1 20.9839 135.487 21.4216L136.986 20.0984C136.573 19.6295 136.145 19.1743 135.704 18.7329L134.289 20.1471ZM135.487 21.4216C135.887 21.8749 136.103 22.1537 136.189 22.29L137.885 21.23C137.703 20.9396 137.386 20.5518 136.986 20.0984L135.487 21.4216ZM136.037 21.7332L135.877 27.6932L137.876 27.7468L138.036 21.7868L136.037 21.7332ZM136.287 26.9126C135.662 27.3692 134.789 27.8721 133.646 28.4175L134.507 30.2225C135.711 29.6479 136.705 29.0841 137.467 28.5274L136.287 26.9126ZM133.646 28.4175C132.502 28.9636 131.235 29.4995 129.844 30.0244L130.55 31.8956C131.985 31.3539 133.305 30.7964 134.507 30.2225L133.646 28.4175ZM129.859 30.0187C128.467 30.5178 127.075 30.9641 125.684 31.3578L126.229 33.2822C127.665 32.8759 129.1 32.4155 130.534 31.9013L129.859 30.0187ZM124.958 32.3726C124.986 32.8976 125.027 33.4103 125.083 33.9104L127.07 33.6896C127.019 33.2297 126.981 32.7557 126.955 32.2674L124.958 32.3726ZM125.083 33.9104C125.138 34.4106 125.208 34.8984 125.292 35.3738L127.261 35.0262C127.185 34.5949 127.122 34.1494 127.07 33.6896L125.083 33.9104ZM126.51 36.1723L136.83 33.6923L136.363 31.7477L126.043 34.2277L126.51 36.1723ZM132.734 21.6895C131.713 21.5477 130.714 21.5043 129.738 21.5617L129.855 23.5583C130.692 23.509 131.56 23.5456 132.459 23.6705L132.734 21.6895ZM129.738 21.5617C128.755 21.6195 127.74 21.7923 126.696 22.0746L127.217 24.0054C128.146 23.7544 129.025 23.6071 129.855 23.5583L129.738 21.5617ZM126.005 22.733C125.721 23.6115 125.497 24.5529 125.33 25.5556L127.303 25.8844C127.456 24.967 127.658 24.1219 127.908 23.347L126.005 22.733ZM125.33 25.5556C125.165 26.5438 125.042 27.545 124.96 28.5592L126.953 28.7208C127.031 27.7617 127.148 26.8162 127.303 25.8844L125.33 25.5556ZM126.266 29.5909C127.457 29.2031 128.695 28.7073 129.981 28.1057L129.133 26.2943C127.911 26.8661 126.749 27.3302 125.647 27.6891L126.266 29.5909ZM129.989 28.1018C131.3 27.4733 132.497 26.8137 133.576 26.1219L132.497 24.4381C131.496 25.0796 130.373 25.7 129.124 26.2982L129.989 28.1018ZM134.023 25.1131L133.583 22.5131L131.611 22.8469L132.051 25.4469L134.023 25.1131ZM149.467 33.84L150.299 33.2853L149.902 32.6905L149.211 32.8732L149.467 33.84ZM150.147 35.2L149.221 35.5786L149.228 35.5964L149.236 35.6138L150.147 35.2ZM150.627 37L151.066 37.8984L151.682 37.597L151.623 36.9134L150.627 37ZM145.227 39.64L144.809 40.5487L145.24 40.7466L145.666 40.5384L145.227 39.64ZM142.627 38L141.976 38.7593L141.976 38.7593L142.627 38ZM140.947 36L139.949 35.9361L139.93 36.2219L140.066 36.4741L140.947 36ZM141.787 22.88L142.785 22.9439L142.786 22.9258L142.786 22.9077L141.787 22.88ZM142.107 11.32L143.106 11.3477L143.143 10.0219L141.858 10.3513L142.107 11.32ZM138.987 12.12L138.123 12.6239L138.503 13.2763L139.235 13.0887L138.987 12.12ZM138.307 10.8L137.396 11.2138L137.4 11.2219L137.404 11.2299L138.307 10.8ZM137.827 9L137.387 8.10161L136.771 8.403L136.83 9.08663L137.827 9ZM143.227 6.36L143.326 5.36496L143.043 5.33665L142.787 5.46161L143.227 6.36ZM144.467 6.76L144.073 7.67914L144.08 7.68241L144.088 7.68554L144.467 6.76ZM146.187 7.6L145.69 8.46824L145.69 8.46824L146.187 7.6ZM147.387 8.44L148.38 8.55544L148.436 8.07494L148.094 7.73289L147.387 8.44ZM145.667 23.24L144.673 23.1246L144.665 23.1959L144.667 23.2678L145.667 23.24ZM145.987 34.76L144.987 34.7878L145.022 36.0494L146.242 35.7268L145.987 34.76ZM148.635 34.3947C148.795 34.6353 148.992 35.0195 149.221 35.5786L151.072 34.8214C150.821 34.2072 150.565 33.6847 150.299 33.2853L148.635 34.3947ZM149.236 35.6138C149.458 36.102 149.587 36.5917 149.63 37.0866L151.623 36.9134C151.559 36.1817 151.368 35.4714 151.057 34.7862L149.236 35.6138ZM150.187 36.1016L144.787 38.7416L145.666 40.5384L151.066 37.8984L150.187 36.1016ZM145.644 38.7313C144.733 38.3127 143.947 37.8144 143.277 37.2407L141.976 38.7593C142.8 39.4656 143.747 40.0606 144.809 40.5487L145.644 38.7313ZM143.277 37.2407C142.602 36.6617 142.129 36.0876 141.827 35.5259L140.066 36.4741C140.51 37.2991 141.158 38.0583 141.976 38.7593L143.277 37.2407ZM141.945 36.0639L142.785 22.9439L140.789 22.8161L139.949 35.9361L141.945 36.0639ZM142.786 22.9077L143.106 11.3477L141.107 11.2923L140.787 22.8523L142.786 22.9077ZM141.858 10.3513L138.738 11.1513L139.235 13.0887L142.355 12.2887L141.858 10.3513ZM139.85 11.6161C139.684 11.3308 139.471 10.9192 139.209 10.3701L137.404 11.2299C137.676 11.8008 137.916 12.2692 138.123 12.6239L139.85 11.6161ZM139.217 10.3862C138.995 9.89804 138.866 9.40834 138.823 8.91337L136.83 9.08663C136.894 9.81833 137.085 10.5286 137.396 11.2138L139.217 10.3862ZM138.266 9.89838L143.666 7.25838L142.787 5.46161L137.387 8.10161L138.266 9.89838ZM143.127 7.35504C143.228 7.3651 143.518 7.44139 144.073 7.67914L144.86 5.84085C144.295 5.5986 143.759 5.40823 143.326 5.36496L143.127 7.35504ZM144.088 7.68554C144.634 7.90874 145.168 8.16951 145.69 8.46824L146.683 6.73176C146.085 6.39049 145.473 6.09126 144.845 5.83445L144.088 7.68554ZM145.69 8.46824C146.229 8.77617 146.536 9.00333 146.679 9.1471L148.094 7.73289C147.757 7.39666 147.264 7.06383 146.683 6.73176L145.69 8.46824ZM146.393 8.32456L144.673 23.1246L146.66 23.3554L148.38 8.55544L146.393 8.32456ZM144.667 23.2678L144.987 34.7878L146.986 34.7322L146.666 23.2122L144.667 23.2678ZM146.242 35.7268L149.722 34.8068L149.211 32.8732L145.731 33.7932L146.242 35.7268Z" fill="black" mask="url(#path-3-outside-2_445_1029)"/>
</svg>
