<svg width="20" height="20" viewBox="0 0 20 20" fill="none" xmlns="http://www.w3.org/2000/svg">
<rect x="0.5" y="0.5" width="19" height="19" rx="9.5" stroke="#888888"/>
<path d="M8.05553 11.1111C8.23971 11.1111 8.41634 11.0379 8.54657 10.9077C8.67681 10.7775 8.74997 10.6008 8.74997 10.4167C8.74997 10.2325 8.67681 10.0559 8.54657 9.92562C8.41634 9.79539 8.23971 9.72222 8.05553 9.72222C7.87135 9.72222 7.69472 9.79539 7.56448 9.92562C7.43425 10.0559 7.36108 10.2325 7.36108 10.4167C7.36108 10.6008 7.43425 10.7775 7.56448 10.9077C7.69472 11.0379 7.87135 11.1111 8.05553 11.1111ZM8.05553 13.0556C8.23971 13.0556 8.41634 12.9824 8.54657 12.8522C8.67681 12.7219 8.74997 12.5453 8.74997 12.3611C8.74997 12.1769 8.67681 12.0003 8.54657 11.8701C8.41634 11.7398 8.23971 11.6667 8.05553 11.6667C7.87135 11.6667 7.69472 11.7398 7.56448 11.8701C7.43425 12.0003 7.36108 12.1769 7.36108 12.3611C7.36108 12.5453 7.43425 12.7219 7.56448 12.8522C7.69472 12.9824 7.87135 13.0556 8.05553 13.0556ZM10.6944 10.4167C10.6944 10.6008 10.6213 10.7775 10.491 10.9077C10.3608 11.0379 10.1842 11.1111 9.99997 11.1111C9.81579 11.1111 9.63916 11.0379 9.50893 10.9077C9.37869 10.7775 9.30553 10.6008 9.30553 10.4167C9.30553 10.2325 9.37869 10.0559 9.50893 9.92562C9.63916 9.79539 9.81579 9.72222 9.99997 9.72222C10.1842 9.72222 10.3608 9.79539 10.491 9.92562C10.6213 10.0559 10.6944 10.2325 10.6944 10.4167ZM9.99997 13.0556C10.1842 13.0556 10.3608 12.9824 10.491 12.8522C10.6213 12.7219 10.6944 12.5453 10.6944 12.3611C10.6944 12.1769 10.6213 12.0003 10.491 11.8701C10.3608 11.7398 10.1842 11.6667 9.99997 11.6667C9.81579 11.6667 9.63916 11.7398 9.50893 11.8701C9.37869 12.0003 9.30553 12.1769 9.30553 12.3611C9.30553 12.5453 9.37869 12.7219 9.50893 12.8522C9.63916 12.9824 9.81579 13.0556 9.99997 13.0556ZM12.6389 10.4167C12.6389 10.6008 12.5657 10.7775 12.4355 10.9077C12.3052 11.0379 12.1286 11.1111 11.9444 11.1111C11.7602 11.1111 11.5836 11.0379 11.4534 10.9077C11.3231 10.7775 11.25 10.6008 11.25 10.4167C11.25 10.2325 11.3231 10.0559 11.4534 9.92562C11.5836 9.79539 11.7602 9.72222 11.9444 9.72222C12.1286 9.72222 12.3052 9.79539 12.4355 9.92562C12.5657 10.0559 12.6389 10.2325 12.6389 10.4167Z" fill="#888888"/>
<path fill-rule="evenodd" clip-rule="evenodd" d="M7.77773 5.13889C7.88824 5.13889 7.99422 5.18279 8.07236 5.26093C8.1505 5.33907 8.1944 5.44505 8.1944 5.55556V5.97222H11.8055V5.55556C11.8055 5.44505 11.8494 5.33907 11.9275 5.26093C12.0057 5.18279 12.1117 5.13889 12.2222 5.13889C12.3327 5.13889 12.4387 5.18279 12.5168 5.26093C12.5949 5.33907 12.6388 5.44505 12.6388 5.55556V5.97667C12.7233 5.97889 12.802 5.98296 12.875 5.98889C13.0861 6.00556 13.2838 6.04333 13.4711 6.13889C13.7586 6.28537 13.9924 6.51914 14.1388 6.80667C14.2344 6.99389 14.2722 7.19167 14.2888 7.40278C14.3055 7.60556 14.3055 7.85278 14.3055 8.15V12.4056C14.3055 12.7028 14.3055 12.95 14.2888 13.1528C14.2722 13.3639 14.2344 13.5617 14.1388 13.7489C13.9925 14.0363 13.7589 14.2701 13.4716 14.4167C13.2838 14.5122 13.0861 14.55 12.875 14.5667C12.6722 14.5833 12.425 14.5833 12.1283 14.5833H7.87217C7.57495 14.5833 7.32773 14.5833 7.12495 14.5667C6.91384 14.55 6.71606 14.5122 6.52884 14.4167C6.24148 14.2705 6.00774 14.0371 5.86106 13.75C5.76551 13.5622 5.72773 13.3644 5.71106 13.1533C5.6944 12.9506 5.6944 12.7033 5.6944 12.4067V8.15C5.6944 7.85278 5.6944 7.60556 5.71106 7.40278C5.72773 7.19167 5.76551 6.99389 5.86106 6.80667C6.00755 6.51914 6.24131 6.28537 6.52884 6.13889C6.71606 6.04333 6.91384 6.00556 7.12495 5.98889C7.19792 5.98296 7.27662 5.97889 7.36106 5.97667V5.55556C7.36106 5.50084 7.37184 5.44666 7.39278 5.3961C7.41372 5.34555 7.44441 5.29962 7.4831 5.26093C7.52179 5.22224 7.56773 5.19155 7.61828 5.17061C7.66883 5.14967 7.72301 5.13889 7.77773 5.13889ZM13.4722 9.02778H6.52773V12.3889C6.52773 12.7067 6.52773 12.9206 6.54162 13.0844C6.5544 13.2444 6.57773 13.3206 6.60329 13.3706C6.66995 13.5017 6.77606 13.6078 6.90717 13.6744C6.95717 13.7 7.03329 13.7233 7.19273 13.7361C7.35717 13.7494 7.57051 13.75 7.88884 13.75H12.1111C12.4288 13.75 12.6427 13.75 12.8066 13.7361C12.9666 13.7233 13.0427 13.7 13.0927 13.6744C13.2236 13.6078 13.33 13.5014 13.3966 13.3706C13.4222 13.3206 13.4455 13.2444 13.4583 13.0844C13.4716 12.9206 13.4722 12.7067 13.4722 12.3889V9.02778ZM9.16662 7.22222C9.05611 7.22222 8.95013 7.26612 8.87199 7.34426C8.79385 7.4224 8.74995 7.52838 8.74995 7.63889C8.74995 7.7494 8.79385 7.85538 8.87199 7.93352C8.95013 8.01166 9.05611 8.05556 9.16662 8.05556H10.8333C10.9438 8.05556 11.0498 8.01166 11.1279 7.93352C11.2061 7.85538 11.25 7.7494 11.25 7.63889C11.25 7.52838 11.2061 7.4224 11.1279 7.34426C11.0498 7.26612 10.9438 7.22222 10.8333 7.22222H9.16662Z" fill="#888888"/>
</svg>
