<svg width="20" height="20" viewBox="0 0 20 20" fill="none" xmlns="http://www.w3.org/2000/svg">
<rect x="0.5" y="0.5" width="19" height="19" rx="9.5" stroke="#888888"/>
<g clip-path="url(#clip0_244_377)">
<path d="M10 10C10.8671 10 11.6528 10.287 12.2292 10.6884C12.7769 11.0704 13.2407 11.638 13.2407 12.2486C13.2407 12.5838 13.0977 12.8616 12.8722 13.0681C12.6602 13.263 12.3833 13.3894 12.0981 13.4755C11.5282 13.6481 10.7778 13.7037 10 13.7037C9.22222 13.7037 8.47176 13.6481 7.90185 13.4755C7.61667 13.3894 7.33982 13.263 7.12732 13.0681C6.90278 12.862 6.75926 12.5843 6.75926 12.2491C6.75926 11.6384 7.22315 11.0708 7.77084 10.6889C8.34722 10.287 9.13287 10 10 10ZM13.2407 10.463C13.7241 10.463 14.163 10.6227 14.4875 10.8486C14.7838 11.0556 15.0926 11.3995 15.0926 11.819C15.0926 12.0583 14.9884 12.2569 14.8333 12.3991C14.6917 12.5292 14.5167 12.6056 14.3569 12.6537C14.1394 12.7194 13.8824 12.7532 13.6157 12.7681C13.6722 12.6083 13.7037 12.4347 13.7037 12.2486C13.7037 11.538 13.2597 10.9343 12.763 10.5153C12.9199 10.4806 13.0801 10.4631 13.2407 10.463ZM6.75926 10.463C6.925 10.4636 7.08426 10.481 7.23704 10.5153C6.74074 10.9343 6.2963 11.538 6.2963 12.2486C6.2963 12.4347 6.32778 12.6083 6.38426 12.7681C6.11759 12.7532 5.86111 12.7194 5.64306 12.6537C5.48334 12.6056 5.30834 12.5292 5.16621 12.3991C5.08474 12.3261 5.01958 12.2367 4.97498 12.1369C4.93039 12.037 4.90736 11.9288 4.90741 11.8194C4.90741 11.4005 5.21574 11.056 5.5125 10.8491C5.87957 10.5974 6.31422 10.4628 6.75926 10.463ZM13.0093 7.68519C13.3162 7.68519 13.6106 7.80713 13.8277 8.02418C14.0447 8.24124 14.1667 8.53563 14.1667 8.84259C14.1667 9.14956 14.0447 9.44395 13.8277 9.661C13.6106 9.87806 13.3162 10 13.0093 10C12.7023 10 12.4079 9.87806 12.1909 9.661C11.9738 9.44395 11.8519 9.14956 11.8519 8.84259C11.8519 8.53563 11.9738 8.24124 12.1909 8.02418C12.4079 7.80713 12.7023 7.68519 13.0093 7.68519ZM6.99074 7.68519C7.29771 7.68519 7.5921 7.80713 7.80915 8.02418C8.02621 8.24124 8.14815 8.53563 8.14815 8.84259C8.14815 9.14956 8.02621 9.44395 7.80915 9.661C7.5921 9.87806 7.29771 10 6.99074 10C6.68378 10 6.38939 9.87806 6.17233 9.661C5.95528 9.44395 5.83334 9.14956 5.83334 8.84259C5.83334 8.53563 5.95528 8.24124 6.17233 8.02418C6.38939 7.80713 6.68378 7.68519 6.99074 7.68519ZM10 5.83333C10.4911 5.83333 10.9622 6.02844 11.3095 6.37573C11.6567 6.72302 11.8519 7.19404 11.8519 7.68519C11.8519 8.17633 11.6567 8.64735 11.3095 8.99464C10.9622 9.34193 10.4911 9.53704 10 9.53704C9.50886 9.53704 9.03783 9.34193 8.69054 8.99464C8.34326 8.64735 8.14815 8.17633 8.14815 7.68519C8.14815 7.19404 8.34326 6.72302 8.69054 6.37573C9.03783 6.02844 9.50886 5.83333 10 5.83333Z" fill="#888888"/>
</g>
<defs>
<clipPath id="clip0_244_377">
<rect width="11.1111" height="11.1111" fill="white" transform="translate(4.44446 4.44444)"/>
</clipPath>
</defs>
</svg>
