<svg width="20" height="20" viewBox="0 0 20 20" fill="none" xmlns="http://www.w3.org/2000/svg">
<rect x="0.5" y="0.5" width="19" height="19" rx="9.5" stroke="#888888"/>
<path d="M6.11111 15C5.80556 15 5.54407 14.8913 5.32667 14.6739C5.10926 14.4565 5.00037 14.1948 5 13.8889V6.11111C5 5.80556 5.10889 5.54407 5.32667 5.32667C5.54444 5.10926 5.80593 5.00037 6.11111 5H13.8889C14.1944 5 14.4561 5.10889 14.6739 5.32667C14.8917 5.54444 15.0004 5.80593 15 6.11111V13.8889C15 14.1944 14.8913 14.4561 14.6739 14.6739C14.4565 14.8917 14.1948 15.0004 13.8889 15H6.11111ZM7.22222 12.7778H10V11.6667H7.22222V12.7778ZM7.77778 10.5556L10 9.44444L12.2222 10.5556V6.11111H7.77778V10.5556Z" fill="#888888"/>
</svg>
