<svg width="20" height="20" viewBox="0 0 20 20" fill="none" xmlns="http://www.w3.org/2000/svg">
<rect x="0.5" y="0.5" width="19" height="19" rx="9.5" stroke="#888888"/>
<path d="M9.49995 13.8889H10.4722V13.1944C10.9351 13.1111 11.3333 12.9306 11.6666 12.6528C12 12.375 12.1666 11.963 12.1666 11.4167C12.1666 11.0278 12.0555 10.6713 11.8333 10.3472C11.6111 10.0231 11.1666 9.74074 10.5 9.5C9.9444 9.31481 9.56014 9.15278 9.34717 9.01389C9.13421 8.875 9.02773 8.68518 9.02773 8.44444C9.02773 8.2037 9.11347 8.01389 9.28495 7.875C9.45643 7.73611 9.70403 7.66667 10.0277 7.66667C10.324 7.66667 10.5555 7.73833 10.7222 7.88167C10.8888 8.025 11.0092 8.20333 11.0833 8.41667L11.9722 8.05556C11.8703 7.73148 11.6829 7.44907 11.41 7.20833C11.137 6.96759 10.8337 6.83333 10.5 6.80556V6.11111H9.52773V6.80556C9.06477 6.90741 8.70366 7.11111 8.4444 7.41667C8.18514 7.72222 8.05551 8.06481 8.05551 8.44444C8.05551 8.87963 8.18292 9.23148 8.43773 9.5C8.69255 9.76852 9.09292 10 9.63884 10.1944C10.2222 10.4074 10.6274 10.5972 10.8544 10.7639C11.0814 10.9306 11.1948 11.1481 11.1944 11.4167C11.1944 11.7222 11.0857 11.9469 10.8683 12.0906C10.6509 12.2343 10.3892 12.3059 10.0833 12.3056C9.77736 12.3052 9.50643 12.2104 9.27051 12.0211C9.03458 11.8319 8.86106 11.547 8.74995 11.1667L7.83329 11.5278C7.96292 11.9722 8.1644 12.3311 8.43773 12.6044C8.71106 12.8778 9.06514 13.0652 9.49995 13.1667V13.8889ZM9.99995 15.5556C9.23143 15.5556 8.50921 15.4096 7.83329 15.1178C7.15736 14.8259 6.5694 14.4302 6.0694 13.9306C5.5694 13.4309 5.17366 12.843 4.88218 12.1667C4.59069 11.4904 4.44477 10.7681 4.4444 10C4.44403 9.23185 4.58995 8.50963 4.88218 7.83333C5.1744 7.15704 5.57014 6.56907 6.0694 6.06944C6.56866 5.56981 7.15662 5.17407 7.83329 4.88222C8.50995 4.59037 9.23217 4.44444 9.99995 4.44444C10.7677 4.44444 11.49 4.59037 12.1666 4.88222C12.8433 5.17407 13.4312 5.56981 13.9305 6.06944C14.4298 6.56907 14.8257 7.15704 15.1183 7.83333C15.4109 8.50963 15.5566 9.23185 15.5555 10C15.5544 10.7681 15.4085 11.4904 15.1177 12.1667C14.827 12.843 14.4312 13.4309 13.9305 13.9306C13.4298 14.4302 12.8418 14.8261 12.1666 15.1183C11.4914 15.4106 10.7692 15.5563 9.99995 15.5556Z" fill="#888888"/>
</svg>
