<svg width="184" height="189" viewBox="0 0 184 189" fill="none" xmlns="http://www.w3.org/2000/svg">
<g filter="url(#filter0_d_497_889)">
<mask id="path-1-outside-1_497_889" maskUnits="userSpaceOnUse" x="48" y="13.5" width="68" height="166" fill="black">
<rect fill="white" x="48" y="13.5" width="68" height="166"/>
<path d="M97.06 14.5C98.38 14.74 100.24 15.7 102.64 17.38C105.04 19.06 107.38 20.86 109.66 22.78C111.94 24.7 113.62 26.26 114.7 27.46L111.28 129.16C109.72 134.92 107.08 140.32 103.36 145.36C99.76 150.4 95.5 154.96 90.58 159.04C85.66 163.24 80.5 166.84 75.1 169.84C69.82 172.96 64.66 175.48 59.62 177.4C57.7 175.84 55.78 173.38 53.86 170.02C51.94 166.78 50.56 163.24 49.72 159.4L53.14 151.48L86.8 142.3L92.74 80.02L92.02 35.02L73.84 37.36C70.84 35.44 68.26 33.46 66.1 31.42C63.94 29.38 61.66 26.8 59.26 23.68L62.68 14.5H97.06Z"/>
</mask>
<path d="M97.06 14.5C98.38 14.74 100.24 15.7 102.64 17.38C105.04 19.06 107.38 20.86 109.66 22.78C111.94 24.7 113.62 26.26 114.7 27.46L111.28 129.16C109.72 134.92 107.08 140.32 103.36 145.36C99.76 150.4 95.5 154.96 90.58 159.04C85.66 163.24 80.5 166.84 75.1 169.84C69.82 172.96 64.66 175.48 59.62 177.4C57.7 175.84 55.78 173.38 53.86 170.02C51.94 166.78 50.56 163.24 49.72 159.4L53.14 151.48L86.8 142.3L92.74 80.02L92.02 35.02L73.84 37.36C70.84 35.44 68.26 33.46 66.1 31.42C63.94 29.38 61.66 26.8 59.26 23.68L62.68 14.5H97.06Z" fill="#3F97CF"/>
<path d="M97.06 14.5L97.2389 13.5161L97.1502 13.5H97.06V14.5ZM109.66 22.78L110.304 22.0151L110.304 22.0151L109.66 22.78ZM114.7 27.46L115.699 27.4936L115.713 27.0907L115.443 26.791L114.7 27.46ZM111.28 129.16L112.245 129.421L112.276 129.309L112.279 129.194L111.28 129.16ZM103.36 145.36L102.555 144.766L102.551 144.772L102.546 144.779L103.36 145.36ZM90.58 159.04L89.9417 158.27L89.9362 158.275L89.9307 158.279L90.58 159.04ZM75.1 169.84L74.6144 168.966L74.6027 168.972L74.5913 168.979L75.1 169.84ZM59.62 177.4L58.9894 178.176L59.437 178.54L59.976 178.334L59.62 177.4ZM53.86 170.02L54.7282 169.524L54.7243 169.517L54.7203 169.51L53.86 170.02ZM49.72 159.4L48.8019 159.004L48.6743 159.299L48.7431 159.614L49.72 159.4ZM53.14 151.48L52.8769 150.515L52.4127 150.642L52.2219 151.084L53.14 151.48ZM86.8 142.3L87.0631 143.265L87.7299 143.083L87.7955 142.395L86.8 142.3ZM92.74 80.02L93.7355 80.1149L93.7408 80.0596L93.7399 80.004L92.74 80.02ZM92.02 35.02L93.0199 35.004L93.002 33.8854L91.8923 34.0282L92.02 35.02ZM73.84 37.36L73.3009 38.2023L73.6071 38.3982L73.9677 38.3518L73.84 37.36ZM66.1 31.42L65.4134 32.147L65.4134 32.147L66.1 31.42ZM59.26 23.68L58.3229 23.3309L58.1294 23.8503L58.4674 24.2897L59.26 23.68ZM62.68 14.5V13.5H61.9854L61.7429 14.1509L62.68 14.5ZM97.06 14.5L96.8811 15.4839C97.9706 15.6819 99.6772 16.5267 102.067 18.1992L102.64 17.38L103.213 16.5608C100.803 14.8733 98.7894 13.798 97.2389 13.5161L97.06 14.5ZM102.64 17.38L102.067 18.1992C104.442 19.8619 106.758 21.6437 109.016 23.5449L109.66 22.78L110.304 22.0151C108.002 20.0763 105.638 18.2581 103.213 16.5608L102.64 17.38ZM109.66 22.78L109.016 23.5449C111.285 25.4556 112.923 26.9806 113.957 28.129L114.7 27.46L115.443 26.791C114.317 25.5394 112.595 23.9444 110.304 22.0151L109.66 22.78ZM114.7 27.46L113.701 27.4264L110.281 129.126L111.28 129.16L112.279 129.194L115.699 27.4936L114.7 27.46ZM111.28 129.16L110.315 128.899C108.789 134.533 106.205 139.821 102.555 144.766L103.36 145.36L104.165 145.954C107.955 140.819 110.651 135.307 112.245 129.421L111.28 129.16ZM103.36 145.36L102.546 144.779C98.9979 149.746 94.7975 154.243 89.9417 158.27L90.58 159.04L91.2183 159.81C96.2026 155.677 100.522 151.054 104.174 145.941L103.36 145.36ZM90.58 159.04L89.9307 158.279C85.059 162.438 79.9535 166 74.6144 168.966L75.1 169.84L75.5856 170.714C81.0465 167.68 86.261 164.042 91.2293 159.801L90.58 159.04ZM75.1 169.84L74.5913 168.979C69.3535 172.074 64.2445 174.568 59.264 176.466L59.62 177.4L59.976 178.334C65.0755 176.392 70.2865 173.846 75.6087 170.701L75.1 169.84ZM59.62 177.4L60.2506 176.624C58.4649 175.173 56.6177 172.83 54.7282 169.524L53.86 170.02L52.9918 170.516C54.9423 173.93 56.9351 176.507 58.9894 178.176L59.62 177.4ZM53.86 170.02L54.7203 169.51C52.8571 166.366 51.5151 162.927 50.6969 159.186L49.72 159.4L48.7431 159.614C49.6049 163.553 51.0229 167.194 52.9997 170.53L53.86 170.02ZM49.72 159.4L50.6381 159.796L54.0581 151.876L53.14 151.48L52.2219 151.084L48.8019 159.004L49.72 159.4ZM53.14 151.48L53.4031 152.445L87.0631 143.265L86.8 142.3L86.5369 141.335L52.8769 150.515L53.14 151.48ZM86.8 142.3L87.7955 142.395L93.7355 80.1149L92.74 80.02L91.7445 79.9251L85.8045 142.205L86.8 142.3ZM92.74 80.02L93.7399 80.004L93.0199 35.004L92.02 35.02L91.0201 35.036L91.7401 80.036L92.74 80.02ZM92.02 35.02L91.8923 34.0282L73.7123 36.3682L73.84 37.36L73.9677 38.3518L92.1477 36.0118L92.02 35.02ZM73.84 37.36L74.3791 36.5177C71.4217 34.625 68.8932 32.6826 66.7866 30.693L66.1 31.42L65.4134 32.147C67.6268 34.2374 70.2583 36.255 73.3009 38.2023L73.84 37.36ZM66.1 31.42L66.7866 30.693C64.675 28.6987 62.4301 26.161 60.0526 23.0703L59.26 23.68L58.4674 24.2897C60.8899 27.439 63.205 30.0613 65.4134 32.147L66.1 31.42ZM59.26 23.68L60.1971 24.0291L63.6171 14.8491L62.68 14.5L61.7429 14.1509L58.3229 23.3309L59.26 23.68ZM62.68 14.5V15.5H97.06V14.5V13.5H62.68V14.5Z" fill="black" mask="url(#path-1-outside-1_497_889)"/>
</g>
<defs>
<filter id="filter0_d_497_889" x="46.8743" y="11.7" width="78.6386" height="176.64" filterUnits="userSpaceOnUse" color-interpolation-filters="sRGB">
<feFlood flood-opacity="0" result="BackgroundImageFix"/>
<feColorMatrix in="SourceAlpha" type="matrix" values="0 0 0 0 0 0 0 0 0 0 0 0 0 0 0 0 0 0 127 0" result="hardAlpha"/>
<feOffset dx="4" dy="4"/>
<feGaussianBlur stdDeviation="2.9"/>
<feComposite in2="hardAlpha" operator="out"/>
<feColorMatrix type="matrix" values="0 0 0 0 0 0 0 0 0 0 0 0 0 0 0 0 0 0 0.5 0"/>
<feBlend mode="normal" in2="BackgroundImageFix" result="effect1_dropShadow_497_889"/>
<feBlend mode="normal" in="SourceGraphic" in2="effect1_dropShadow_497_889" result="shape"/>
</filter>
</defs>
</svg>
